<?xml version="1.0" encoding="UTF-8" standalone="no"?>
<!-- Created with Inkscape (http://www.inkscape.org/) -->

<svg
   xmlns:osb="http://www.openswatchbook.org/uri/2009/osb"
   xmlns:dc="http://purl.org/dc/elements/1.1/"
   xmlns:cc="http://creativecommons.org/ns#"
   xmlns:rdf="http://www.w3.org/1999/02/22-rdf-syntax-ns#"
   xmlns:svg="http://www.w3.org/2000/svg"
   xmlns="http://www.w3.org/2000/svg"
   xmlns:xlink="http://www.w3.org/1999/xlink"
   xmlns:sodipodi="http://sodipodi.sourceforge.net/DTD/sodipodi-0.dtd"
   xmlns:inkscape="http://www.inkscape.org/namespaces/inkscape"
   width="394.72922"
   height="98.738503"
   viewBox="0 0 104.43877 26.124563"
   version="1.1"
   id="svg8"
   inkscape:version="0.92.4 (5da689c313, 2019-01-14)"
   sodipodi:docname="logo_text.svg">
  <sodipodi:namedview
     id="base"
     pagecolor="#ffffff"
     bordercolor="#666666"
     borderopacity="1.0"
     inkscape:pageopacity="0.0"
     inkscape:pageshadow="2"
     inkscape:zoom="4.27"
     inkscape:cx="113.72438"
     inkscape:cy="17.407622"
     inkscape:document-units="mm"
     inkscape:current-layer="g1466"
     showgrid="false"
     units="px"
     borderlayer="true"
     inkscape:window-width="1920"
     inkscape:window-height="1001"
     inkscape:window-x="2391"
     inkscape:window-y="-9"
     inkscape:window-maximized="1"
     inkscape:snap-global="true"
     fit-margin-top="0"
     fit-margin-left="0"
     fit-margin-right="0"
     fit-margin-bottom="0" />
  <defs
     id="defs2">
    <linearGradient
       inkscape:collect="always"
       id="linearGradient6547-2-1">
      <stop
         style="stop-color:#4e55ce;stop-opacity:1;"
         offset="0"
         id="stop6543" />
      <stop
         style="stop-color:#4e55ce;stop-opacity:0;"
         offset="1"
         id="stop6545" />
    </linearGradient>
    <linearGradient
       id="linearGradient6489"
       osb:paint="solid">
      <stop
         style="stop-color:#000000;stop-opacity:1;"
         offset="0"
         id="stop6487" />
    </linearGradient>
    <linearGradient
       inkscape:collect="always"
       xlink:href="#linearGradient6547-2-1"
       id="linearGradient6551"
       x1="17.188732"
       y1="286.89413"
       x2="3.9845226"
       y2="286.51221"
       gradientUnits="userSpaceOnUse"
       gradientTransform="translate(0.69021739,-1.8405797)" />
    <filter
       style="color-interpolation-filters:sRGB"
       inkscape:label="Drop Shadow"
       id="filter7019">
      <feFlood
         flood-opacity="0.498039"
         flood-color="rgb(0,0,0)"
         result="flood"
         id="feFlood7009" />
      <feComposite
         in="flood"
         in2="SourceGraphic"
         operator="in"
         result="composite1"
         id="feComposite7011" />
      <feGaussianBlur
         in="composite1"
         stdDeviation="1"
         result="blur"
         id="feGaussianBlur7013" />
      <feOffset
         dx="-29.9"
         dy="6"
         result="offset"
         id="feOffset7015" />
      <feComposite
         in="SourceGraphic"
         in2="offset"
         operator="over"
         result="fbSourceGraphic"
         id="feComposite7017" />
      <feColorMatrix
         result="fbSourceGraphicAlpha"
         in="fbSourceGraphic"
         values="0 0 0 -1 0 0 0 0 -1 0 0 0 0 -1 0 0 0 0 1 0"
         id="feColorMatrix8533" />
      <feFlood
         id="feFlood8535"
         flood-opacity="0.498039"
         flood-color="rgb(0,0,0)"
         result="flood"
         in="fbSourceGraphic" />
      <feComposite
         in2="fbSourceGraphic"
         id="feComposite8537"
         in="flood"
         operator="in"
         result="composite1" />
      <feGaussianBlur
         id="feGaussianBlur8539"
         in="composite1"
         stdDeviation="0.3"
         result="blur" />
      <feOffset
         id="feOffset8541"
         dx="0.8"
         dy="0.3"
         result="offset" />
      <feComposite
         in2="offset"
         id="feComposite8543"
         in="fbSourceGraphic"
         operator="over"
         result="composite2" />
    </filter>
    <filter
       style="color-interpolation-filters:sRGB"
       inkscape:label="Drop Shadow"
       id="filter8999-3">
      <feFlood
         flood-opacity="0.498039"
         flood-color="rgb(0,0,0)"
         result="flood"
         id="feFlood8989-4" />
      <feComposite
         in="flood"
         in2="SourceGraphic"
         operator="in"
         result="composite1"
         id="feComposite8991-5" />
      <feGaussianBlur
         in="composite1"
         stdDeviation="0.1"
         result="blur"
         id="feGaussianBlur8993-0" />
      <feOffset
         dx="0.4"
         dy="2.77556e-017"
         result="offset"
         id="feOffset8995-7" />
      <feComposite
         in="offset"
         in2="offset"
         operator="atop"
         result="composite2"
         id="feComposite8997-7" />
    </filter>
    <linearGradient
       inkscape:collect="always"
       xlink:href="#linearGradient6547-2-1"
       id="linearGradient1547"
       x1="21.730289"
       y1="285.67685"
       x2="3.852634"
       y2="286.03244"
       gradientUnits="userSpaceOnUse"
       gradientTransform="translate(0,-0.0661266)" />
  </defs>
  <metadata
     id="metadata5">
    <rdf:RDF>
      <cc:Work
         rdf:about="">
        <dc:format>image/svg+xml</dc:format>
        <dc:type
           rdf:resource="http://purl.org/dc/dcmitype/StillImage" />
        <dc:title />
      </cc:Work>
    </rdf:RDF>
  </metadata>
  <g
     transform="translate(-2.4104604,-262.90343)"
     id="layer1"
     inkscape:groupmode="layer"
     inkscape:label="Ebene 1">
    <g
       id="g1466"
       transform="translate(0,-6.9593347)">
      <path
         style="opacity:1;fill:url(#linearGradient1547);fill-opacity:1.0;fill-rule:evenodd;stroke:#0f0f0f;stroke-width:0.30000001;stroke-linecap:butt;stroke-linejoin:miter;stroke-miterlimit:4;stroke-dasharray:none;stroke-opacity:1"
         d="m 22.621765,276.93893 -17.7402438,3.24112 v 9.72336 l 17.7402438,3.24111 z"
         id="path6154"
         inkscape:connector-curvature="0"
         sodipodi:nodetypes="ccccc" />
      <path
         style="fill:#000000;fill-opacity:1;fill-rule:evenodd;stroke:none;stroke-width:0.034;stroke-miterlimit:4;stroke-dasharray:none;stroke-opacity:1"
         inkscape:connector-curvature="0"
         d="m 18.595097,273.10638 c 0.377013,0.13885 0.855481,0.35491 0.957194,0.43288 0.176976,0.13631 0.332858,0.0528 0.401871,-0.21735 0.09393,-0.36837 0.136371,-0.33789 0.07372,0.0542 -0.02376,0.14875 -0.04734,0.60069 -0.05244,1.00433 -0.01643,1.30065 -0.289779,2.27925 -1.029773,3.72602 -0.420007,0.82115 -0.645347,1.1287 -1.17351,1.61108 -0.426004,0.38898 -0.541989,0.63922 -0.415199,0.88798 0.07122,0.13984 0.15135,0.0839 0.351588,-0.24827 0.530189,-0.87789 1.452618,-1.67145 1.597445,-1.35156 0.02169,0.0479 0.0282,0.12046 0.01452,0.16176 -0.0137,0.0405 -0.03777,0.14382 -0.05345,0.22855 -0.07667,0.41231 -0.11301,0.55117 -0.221309,0.84483 -0.112981,0.30653 -0.171226,0.39077 -0.573798,0.83236 -0.06165,0.0676 -0.188936,0.16671 -0.282661,0.2205 -0.127417,0.073 -0.182623,0.1339 -0.224388,0.24647 -0.03032,0.082 -0.0689,0.14921 -0.0855,0.14921 -0.01672,-6e-5 -0.05143,0.0604 -0.07726,0.13389 -0.02575,0.074 -0.06372,0.16401 -0.08417,0.20122 -0.02918,0.0532 -0.02562,0.0905 0.01656,0.17432 0.02959,0.0588 0.0538,0.15231 0.0538,0.20702 0,0.27652 0.09667,0.50429 0.285888,0.67206 0.395983,0.35091 0.616541,0.68645 0.773421,1.18184 0.05747,0.18194 0.220339,0.62322 0.362825,0.98375 0.233696,0.59128 0.267244,0.7072 0.306886,1.06296 0.02449,0.22007 0.06564,0.53165 0.09141,0.69261 0.171516,1.07072 0.063,1.50753 -0.534126,2.17956 -0.134606,0.15153 -0.284521,0.3724 -0.334008,0.49129 -0.230822,0.55529 -0.916332,0.73502 -1.377883,0.3836 -0.363049,-0.2765 -0.530842,-0.50401 -0.699922,-0.94319 -0.04445,-0.11525 -0.148106,-0.30249 -0.230068,-0.41543 -0.778132,-1.07073 -0.907266,-1.62488 -0.690699,-2.9087 0.03153,-0.18687 0.03111,-0.2532 -0.003,-0.43873 -0.09052,-0.4929 -0.09354,-1.22439 -0.0048,-1.14014 0.08918,0.0847 -0.02289,-0.0681 -0.15501,-0.21154 -0.234439,-0.25408 -0.275237,-0.46072 -0.189694,-0.95262 0.05935,-0.34104 0.01468,-0.81113 -0.09667,-1.01899 -0.05852,-0.10933 -0.07135,-0.17834 -0.07934,-0.42572 0,0 -0.0095,-0.29533 -0.0095,-0.29533 0,0 -0.09929,0.0225 -0.09929,0.0225 -0.2376,0.056 -0.9255,-0.6611 -0.9255,-0.9545 0,-0.0358 -0.01662,-0.0765 -0.03712,-0.087 -0.02034,-0.01 -0.03703,-0.0358 -0.03703,-0.0573 0,-0.0225 -0.03886,-0.0867 -0.08621,-0.14474 -0.04718,-0.0584 -0.09247,-0.14828 -0.100823,-0.19988 -0.0084,-0.0515 -0.03241,-0.1219 -0.05339,-0.15638 -0.111157,-0.18151 0.143951,-0.17256 0.547878,0.0226 0.368061,0.17837 0.481755,0.26396 0.767021,0.57923 0.123577,0.13672 0.241507,0.24915 0.261151,0.24826 0.05779,-8e-4 0.07563,-0.1506 0.02891,-0.24108 -0.08001,-0.15505 -0.112903,-0.19718 -0.381849,-0.48758 -1.076977,-1.16314 -1.560935,-2.43603 -1.441244,-3.70233 0.01718,-0.18282 0.03009,-0.50846 0.02844,-0.72363 -0.002,-0.27023 0.003,-0.35045 0.01577,-0.26036 0.02382,0.16669 0.05515,0.20478 0.131346,0.15774 0.06787,-0.0402 0.508471,-0.78205 0.584266,-0.98341 0.05896,-0.15684 0.06452,-0.0834 0.0071,0.0955 -0.06525,0.20345 -0.294291,0.72463 -0.404004,0.92039 -0.257614,0.45969 -0.158547,0.55684 0.269218,0.25678 0.145048,-0.10184 0.339683,-0.23664 0.431605,-0.29936 0.09256,-0.0627 0.192293,-0.13137 0.221116,-0.15185 0.188214,-0.13389 -0.272004,0.29444 -0.552387,0.51477 -0.590199,0.46429 -0.528853,0.38137 -0.554448,0.74159 -0.03476,0.48901 0.05437,0.89357 0.337116,1.522 0.208515,0.46335 0.76904,1.28247 1.019399,1.48347 0.110847,0.0887 0.244438,0.32892 0.244438,0.44049 0,0.0358 0.01221,0.0762 0.02715,0.0878 0.05648,0.0458 0.02356,-0.0941 -0.08004,-0.34057 -0.292089,-0.69511 -0.360017,-0.95798 -0.430156,-1.65847 -0.02946,-0.29443 -0.01841,-0.46359 0.0163,-0.24827 0.08522,0.52979 0.245241,1.04955 0.45386,1.47002 0.0948,0.19092 0.216063,0.47757 0.269096,0.63604 0.133416,0.39884 0.280534,0.49882 0.717155,0.47884 0.514838,-0.0225 0.660834,-0.24065 0.487124,-0.73748 -0.135299,-0.38672 -0.154022,-0.57328 -0.104902,-1.041 0.04747,-0.45182 0.159665,-1.24273 0.180858,-1.274 0.0078,-0.01 0.0052,0.38002 -0.0055,0.86881 0,0 -0.0194,0.88819 -0.0194,0.88819 0,0 0.07948,0.20793 0.07948,0.20793 0.144338,0.37824 0.282596,0.47427 0.41019,0.28055 0.03283,-0.0497 0.173312,-0.17165 0.313295,-0.27201 0.843157,-0.60304 1.231009,-1.88439 1.006459,-3.39886 -0.0992,-0.66897 -0.06874,-0.68923 0.102247,-0.0654 0.119465,0.43558 0.153945,0.63064 0.167503,0.94858 0.02403,0.56439 0.148323,0.39928 0.374042,-0.50336 0.445016,-1.78005 0.385921,-2.22096 -0.346695,-2.64257 -0.197978,-0.11384 -0.66694,-0.4506 -0.66694,-0.47805 0,-0.0314 0.06036,-0.0179 0.218281,0.0403"
         id="path0" />
      <rect
         style="opacity:0;fill:none;fill-opacity:1;stroke:#000005;stroke-width:0.67020035;stroke-linejoin:bevel;stroke-miterlimit:6.9000001;stroke-dasharray:none;stroke-dashoffset:12.70281696;stroke-opacity:1;paint-order:fill markers stroke"
         id="rect4714"
         width="3.1279655"
         height="2.3265858"
         x="3.3581924"
         y="292.87326" />
      <rect
         style="opacity:0;fill:none;fill-opacity:1;stroke:#000005;stroke-width:0.67020035;stroke-linejoin:bevel;stroke-miterlimit:6.9000001;stroke-dasharray:none;stroke-dashoffset:12.70281696;stroke-opacity:1;paint-order:fill markers stroke"
         id="rect4716"
         width="3.2572198"
         height="3.2442937"
         x="3.5391493"
         y="292.40793"
         ry="0.5299446" />
      <g
         aria-label="H"
         transform="matrix(0.42250119,0,0,0.36521681,15.639073,182.34352)"
         style="font-style:normal;font-variant:normal;font-weight:normal;font-stretch:normal;font-size:14.04514313px;line-height:125%;font-family:'Bell MT';-inkscape-font-specification:'Bell MT';letter-spacing:0px;word-spacing:0px;fill:#000000;fill-opacity:1;stroke:none;stroke-width:0.35112858px;stroke-linecap:butt;stroke-linejoin:miter;stroke-opacity:1;filter:url(#filter7019)"
         id="text6363">
        <path
           inkscape:connector-curvature="0"
           d="m -23.955031,290.45938 c 0,0 -0.121475,-3.87366 -0.121475,-3.87366 0,-1.70067 0.166644,-2.84377 0.503813,-3.43613 0.333119,-0.60931 0.909298,-0.99838 1.74767,-1.16477 0.502048,-0.0996 0.757248,-0.25465 0.757248,-0.46338 0,-0.18885 -0.153459,-0.25084 -0.457343,-0.18661 0,0 -4.008136,0.98188 -4.008136,0.98188 0,0 -2.8899,0.53877 -2.8899,0.53877 -0.209432,0.0439 -0.313305,0.14034 -0.313305,0.2896 0,0.13268 0.06799,0.1855 0.204696,0.15832 0.556621,-0.11065 0.999866,-0.1047 1.321527,0.0217 0.326901,0.12852 0.54781,0.41489 0.659172,0.85933 0.10395,0.44814 0.192326,1.76799 0.264922,3.96365 0.06474,2.19476 0.09718,3.79416 0.09718,4.79302 0,0 0.03656,3.26635 0.03656,3.26635 0,1.01744 -0.08927,1.6661 -0.266647,1.94416 -0.175854,0.26693 -0.432891,0.45507 -0.768028,0.56477 -0.337237,0.0979 -0.67633,0.13322 -1.017041,0.10767 -0.233567,-0.0132 -0.349309,0.0428 -0.349309,0.16778 0,0.13331 0.09761,0.22053 0.294317,0.26198 0,0 3.703397,0.66996 3.703397,0.66996 0,0 2.820227,0.68981 2.820227,0.68981 0.351661,0.074 0.529532,0.0222 0.529532,-0.15615 0,-0.14865 -0.127191,-0.25332 -0.379481,-0.31352 -0.789054,-0.20567 -1.287508,-0.40483 -1.513857,-0.60125 -0.233341,-0.19619 -0.418249,-0.51828 -0.555915,-0.9657 -0.136803,-0.44461 -0.213945,-1.16687 -0.232056,-2.16824 0,0 -0.06778,-5.08275 -0.06778,-5.08275 0.790169,-0.0514 1.624217,-0.0756 2.505501,-0.0711 4.270717,0.022 7.417808,0.11832 8.873316,0.29267 0.115253,2.26441 0.173062,4.13183 0.173062,5.59508 0,1.64027 -0.04337,2.64228 -0.129915,3.00519 -0.08627,0.36176 -0.350548,0.66684 -0.787715,0.91311 -0.443971,0.22817 -1.035923,0.33094 -1.765901,0.3115 -0.441286,-0.01 -0.659145,0.0689 -0.659145,0.23513 0,0.19948 0.140758,0.32892 0.424591,0.38882 0.09097,0.0192 0.221474,0.0355 0.392099,0.049 0.720881,0.0833 2.281112,0.37429 4.832579,0.90614 3.0615371,0.63816 5.1074091,1.11823 5.9001051,1.39272 0.172488,0.0503 0.345926,0.0939 0.520323,0.13074 0.450049,0.0951 0.677468,0.0395 0.677468,-0.16778 0,-0.23495 -0.306145,-0.44149 -0.909778,-0.61708 -1.451228,-0.40967 -2.447821,-0.88845 -3.030542,-1.44219 -0.571689,-0.54322 -0.955313,-2.23978 -1.157908,-5.08273 -0.217916,-2.82457 -0.326274,-6.22862 -0.326274,-10.22769 0,-3.25241 0.200365,-5.33449 0.605211,-6.25559 0.410432,-0.93379 1.434974,-1.6109 3.13785,-2.03888 0.397769,-0.10561 0.598554,-0.25406 0.598554,-0.44432 0,-0.27176 -0.409769,-0.32196 -1.213585,-0.15389 0,0 -9.4556141,1.87556 -9.4556141,1.87556 -0.563994,0.11902 -0.892777,0.20508 -0.995071,0.25992 -0.114594,0.0462 -0.1717,0.1465 -0.1717,0.30117 0,0.17673 0.165325,0.24869 0.499184,0.21556 1.311786,-0.14637 2.146573,-0.10147 2.456661,0.14242 0.299327,0.24933 0.45023,2.12982 0.45023,5.63943 0,0.3651 -0.02161,1.64406 -0.06476,3.83431 -1.428247,0.11011 -3.016005,0.17232 -4.728936,0.18997 -2.048828,0.0211 -4.290306,0.005 -6.649884,-0.0434 0,0 10e-6,-4.5e-4 10e-6,-4.5e-4"
           style="font-style:normal;font-variant:normal;font-weight:normal;font-stretch:normal;font-family:'Bell MT';-inkscape-font-specification:'Bell MT';stroke-width:0.35112858px"
           id="path6365" />
      </g>
      <path
         sodipodi:nodetypes="cccccccccccccccccccccccccccscsccccccccccccccccccccccsccccccccccccccccccccsc"
         transform="matrix(1.1720833,0.06632476,-0.06632476,1.1720833,2.1785492,-50.052533)"
         style="opacity:1;fill:#000000;fill-opacity:0.69105691;fill-rule:evenodd;stroke:none;stroke-width:0.034;stroke-miterlimit:4;stroke-dasharray:none;stroke-opacity:1;filter:url(#filter8999-3)"
         inkscape:connector-curvature="0"
         d="m 30.415168,272.98062 c 0.377013,0.13885 0.855481,0.35491 0.957194,0.43288 0.176976,0.13631 0.332858,0.0528 0.401871,-0.21735 0.09393,-0.36837 0.136371,-0.33789 0.07372,0.0542 -0.02376,0.14875 -0.04734,0.60069 -0.05244,1.00433 -0.01643,1.30065 -0.289779,2.27925 -1.029773,3.72602 -0.420007,0.82115 -0.645347,1.1287 -1.17351,1.61108 -0.426004,0.38898 -0.541989,0.63922 -0.415199,0.88798 0.07122,0.13984 0.15135,0.0839 0.351588,-0.24827 0.530189,-0.87789 1.452618,-1.67145 1.597445,-1.35156 0.02169,0.0479 0.0282,0.12046 0.01452,0.16176 -0.0137,0.0405 -0.03777,0.14382 -0.05345,0.22855 -0.07667,0.41231 -0.11301,0.55117 -0.221309,0.84483 -0.112981,0.30653 -0.171226,0.39077 -0.573798,0.83236 -0.06165,0.0676 -0.188936,0.16671 -0.282661,0.2205 -0.127417,0.073 -0.182623,0.1339 -0.224388,0.24647 -0.03032,0.082 -0.0689,0.14921 -0.0855,0.14921 -0.01672,-6e-5 -0.05143,0.0604 -0.07726,0.13389 -0.02575,0.074 -0.06372,0.16401 -0.08417,0.20122 -0.531723,1.82358 1.704865,7.53366 -1.978916,3.32296 -0.09052,-0.4929 -0.09354,-1.22439 -0.0048,-1.14014 0.08918,0.0847 -0.02289,-0.0681 -0.15501,-0.21154 -0.234439,-0.25408 -0.275237,-0.46072 -0.189694,-0.95262 0.05935,-0.34104 0.01468,-0.81113 -0.09667,-1.01899 -0.05852,-0.10933 -0.07135,-0.17834 -0.07934,-0.42572 l -0.0095,-0.29533 -0.09929,0.0225 c -0.2376,0.056 -0.9255,-0.6611 -0.9255,-0.9545 0,-0.0358 -0.01662,-0.0765 -0.03712,-0.087 -0.02034,-0.01 -0.03703,-0.0358 -0.03703,-0.0573 0,-0.0225 -0.03886,-0.0867 -0.08621,-0.14474 -0.04718,-0.0584 -0.09247,-0.14828 -0.100823,-0.19988 -0.0084,-0.0515 -0.03241,-0.1219 -0.05339,-0.15638 -0.111157,-0.18151 0.143951,-0.17256 0.547878,0.0226 0.368061,0.17837 0.481755,0.26396 0.767021,0.57923 0.123577,0.13672 0.241507,0.24915 0.261151,0.24826 0.05779,-8e-4 0.07563,-0.1506 0.02891,-0.24108 -0.08001,-0.15505 -0.112903,-0.19718 -0.381849,-0.48758 -1.076977,-1.16314 -1.560935,-2.43603 -1.441244,-3.70233 0.01718,-0.18282 0.03009,-0.50846 0.02844,-0.72363 -0.002,-0.27023 0.003,-0.35045 0.01577,-0.26036 0.02382,0.16669 0.05515,0.20478 0.131346,0.15774 0.06787,-0.0402 0.508471,-0.78205 0.584266,-0.98341 0.05896,-0.15684 0.06452,-0.0834 0.0071,0.0955 -0.06525,0.20345 -0.294291,0.72463 -0.404004,0.92039 -0.257614,0.45969 -0.158547,0.55684 0.269218,0.25678 0.145048,-0.10184 0.339683,-0.23664 0.431605,-0.29936 0.09256,-0.0627 0.192293,-0.13137 0.221116,-0.15185 0.188214,-0.13389 -0.272004,0.29444 -0.552387,0.51477 -0.590199,0.46429 -0.528853,0.38137 -0.554448,0.74159 -0.03476,0.48901 0.05437,0.89357 0.337116,1.522 0.208515,0.46335 0.76904,1.28247 1.019399,1.48347 0.110847,0.0887 0.244438,0.32892 0.244438,0.44049 0,0.0358 0.01221,0.0762 0.02715,0.0878 0.05648,0.0458 0.02356,-0.0941 -0.08004,-0.34057 -0.292089,-0.69511 -0.360017,-0.95798 -0.430156,-1.65847 -0.02946,-0.29443 -0.01841,-0.46359 0.0163,-0.24827 0.08522,0.52979 0.245241,1.04955 0.45386,1.47002 0.0948,0.19092 0.216063,0.47757 0.269096,0.63604 0.133416,0.39884 0.280534,0.49882 0.717155,0.47884 0.514838,-0.0225 0.660834,-0.24065 0.487124,-0.73748 -0.135299,-0.38672 -0.154022,-0.57328 -0.104902,-1.041 0.04747,-0.45182 0.159665,-1.24273 0.180858,-1.274 0.0078,-0.01 0.0052,0.38002 -0.0055,0.86881 l -0.0194,0.88819 0.07948,0.20793 c 0.144338,0.37824 0.282596,0.47427 0.41019,0.28055 0.03283,-0.0497 0.173312,-0.17165 0.313295,-0.27201 0.843157,-0.60304 1.231009,-1.88439 1.006459,-3.39886 -0.0992,-0.66897 -0.06874,-0.68923 0.102247,-0.0654 0.119465,0.43558 0.153945,0.63064 0.167503,0.94858 0.02403,0.56439 0.148323,0.39928 0.374042,-0.50336 0.445016,-1.78005 0.385921,-2.22096 -0.346695,-2.64257 -0.197978,-0.11384 -0.66694,-0.4506 -0.66694,-0.47805 0,-0.0314 0.06036,-0.0179 0.218281,0.0403"
         id="path0-9" />
    </g>
    <flowRoot
       xml:space="preserve"
       id="flowRoot1549"
       style="font-style:normal;font-weight:normal;font-size:40px;line-height:25px;font-family:sans-serif;letter-spacing:0px;word-spacing:0px;fill:#000000;fill-opacity:1;stroke:none"
       transform="matrix(0.26458333,0,0,0.26458333,0,270.54165)"><flowRegion
         id="flowRegion1551"><rect
           id="rect1553"
           width="99.462364"
           height="46.505375"
           x="4.032258"
           y="4.8387098" /></flowRegion><flowPara
         id="flowPara1555">JagdKa</flowPara></flowRoot>    <flowRoot
       xml:space="preserve"
       id="flowRoot1443"
       style="font-style:normal;font-variant:normal;font-weight:normal;font-stretch:normal;font-size:40px;line-height:25px;font-family:'Cinzel Decorative';-inkscape-font-specification:'Cinzel Decorative';letter-spacing:0px;word-spacing:0px;fill:#000000;fill-opacity:1;stroke:none"
       transform="matrix(0.26458333,0,0,0.26458333,-24.315483,255.9441)"><flowRegion
         id="flowRegion1445"
         style="font-style:normal;font-variant:normal;font-weight:normal;font-stretch:normal;font-family:'Cinzel Decorative';-inkscape-font-specification:'Cinzel Decorative'"><rect
           id="rect1447"
           width="304.93826"
           height="50.617283"
           x="197.53087"
           y="25.418541"
           style="font-style:normal;font-variant:normal;font-weight:normal;font-stretch:normal;font-family:'Cinzel Decorative';-inkscape-font-specification:'Cinzel Decorative'" /></flowRegion><flowPara
         id="flowPara1449" /></flowRoot>    <g
       aria-label="JagdKataster"
       transform="matrix(0.26458333,0,0,0.26458333,-8.3098246,272.83555)"
       style="font-style:normal;font-variant:normal;font-weight:normal;font-stretch:normal;font-size:40px;line-height:25px;font-family:'Cinzel Decorative';-inkscape-font-specification:'Cinzel Decorative';letter-spacing:0px;word-spacing:0px;fill:#000000;fill-opacity:1;stroke:none"
       id="flowRoot1451">
      <path
         d="m 132.64273,36.230565 q 1.08,0.36 2.16,0.36 1.04,0 2.2,-0.44 1.16,-0.44 2.12,-1.4 0.96,-0.92 1.56,-2.8 0.64,-1.88 0.64,-4.44 v -21.76 q -0.04,-1.04 -0.8,-1.76 -0.72,-0.76 -1.76,-0.76 h -0.52 v -0.4 h 8.76 v 0.4 h -0.52 q -1.04,0 -1.8,0.72 -0.72,0.72 -0.76,1.8 v 21.88 q 0,2.72 -0.84,4.76 -0.84,2.04 -2.12,3.08 -2.4,1.88 -5.32,1.88 -1.72,0 -3.16,-0.68 z"
         style="stroke:#0f0f0f;stroke-width:0.56692916;stroke-miterlimit:4;stroke-dasharray:none;stroke-opacity:1"
         id="path1468"
         inkscape:connector-curvature="0" />
      <path
         d="m 177.25523,30.430565 h 0.32 v 0.4 h -9 v -0.4 h 0.36 q 0.84,0 1.24,-0.52 0.44,-0.56 0.44,-1.04 0,-0.48 -0.16,-0.96 l -2.56,-6.8 h -10.8 l -2.68,6.84 q -0.16,0.48 -0.16,0.96 0,0.44 0.4,1 0.44,0.52 1.28,0.52 h 0.36 v 0.4 h -8.04 v -0.4 h 0.36 q 1,0 1.96,-0.64 0.96,-0.64 1.56,-1.88 l 9.04,-21.52 q 1.48,-3.24 1.48,-4.12 h 0.36 l 10.72,25.64 q 0.56,1.24 1.52,1.88 0.96,0.64 2,0.64 z m -19.68,-10.52 h 9.84 l -4.8,-12.84 z"
         style="stroke:#0f0f0f;stroke-width:0.56692916;stroke-miterlimit:4;stroke-dasharray:none;stroke-opacity:1"
         id="path1470"
         inkscape:connector-curvature="0" />
      <path
         d="m 192.48461,31.390565 q -6.4,-0.04 -10.4,-4.04 -3.96,-4 -3.96,-10.52 0,-6.52 3.96,-10.52 4,-4.04 10.4,-4.04 5.52,0 9.72,2.72 l 0.8,5.64 h -0.36 q -0.88,-3.44 -3.56,-5.28 -2.64,-1.88 -6.6,-1.88 -5.08,0 -8.24,3.68 -3.12,3.68 -3.12,9.68 0,6 3.12,9.68 3.16,3.64 8.24,3.68 2.6,0 4.92,-0.92 2.36,-0.92 4.12,-2.56 v -7.08 q 0,-0.88 -0.56,-1.32 -0.52,-0.48 -1.48,-0.48 h -0.64 v -0.4 h 7.84 v 0.4 h -0.6 q -1,0 -1.52,0.48 -0.52,0.44 -0.48,1.32 v 6.6 q -1.04,1.36 -2.48,2.44 -1.44,1.08 -3.88,1.92 -2.4,0.8 -5.24,0.8 z"
         style="stroke:#0f0f0f;stroke-width:0.56692916;stroke-miterlimit:4;stroke-dasharray:none;stroke-opacity:1"
         id="path1472"
         inkscape:connector-curvature="0" />
      <path
         d="m 222.62211,2.830565 q 6.4,0 10.36,3.88 4,3.84 4,10.12 0,6.28 -4,10.16 -3.96,3.84 -10.36,3.84 h -13.56 v -0.4 h 0.52 q 1.04,0 1.76,-0.72 0.76,-0.76 0.8,-1.8 v -22.4 q 0,-0.96 -0.8,-1.6 -0.76,-0.68 -1.76,-0.68 h -0.48 l -0.04,-0.4 z m -7.88,1.2 v 25.6 h 7.88 q 3.36,0 5.92,-1.6 2.6,-1.6 4,-4.48 1.44,-2.92 1.44,-6.72 0,-5.76 -3.16,-9.28 -3.12,-3.52 -8.2,-3.52 z"
         style="stroke:#0f0f0f;stroke-width:0.56692916;stroke-miterlimit:4;stroke-dasharray:none;stroke-opacity:1"
         id="path1474"
         inkscape:connector-curvature="0" />
      <path
         d="m 248.78648,30.430565 h 0.52 v 0.4 h -8.76 v -0.4 h 0.52 q 1.04,0 1.76,-0.72 0.76,-0.76 0.8,-1.8 v -22.2 q -0.04,-1.04 -0.8,-1.76 -0.72,-0.72 -1.76,-0.72 h -0.52 v -0.4 h 8.76 v 0.4 h -0.52 q -1.04,0 -1.8,0.72 -0.72,0.72 -0.76,1.76 v 22.2 q 0,1.04 0.76,1.8 0.76,0.72 1.8,0.72 z m 27.72,6.4 v 0.4 q -1.52,0.36 -3.04,0.36 -6.56,0 -12.72,-6.56 l -13.24,-14.12 9.44,-11.84 q 0.32,-0.4 0.32,-0.72 0,-0.32 -0.12,-0.56 -0.32,-0.6 -1.16,-0.6 h -0.4 v -0.36 h 8.44 v 0.36 h -0.16 q -2.64,0 -4.32,1.88 l -9.32,10.76 13.6,14.52 q 2.64,2.84 5.92,4.64 3.32,1.84 6.76,1.84 z"
         style="stroke:#0f0f0f;stroke-width:0.56692916;stroke-miterlimit:4;stroke-dasharray:none;stroke-opacity:1"
         id="path1476"
         inkscape:connector-curvature="0" />
      <path
         d="m 293.58336,30.430565 h 0.32 v 0.4 h -9 v -0.4 h 0.36 q 0.84,0 1.24,-0.52 0.44,-0.56 0.44,-1.04 0,-0.48 -0.16,-0.96 l -2.56,-6.8 h -10.8 l -2.68,6.84 q -0.16,0.48 -0.16,0.96 0,0.44 0.4,1 0.44,0.52 1.28,0.52 h 0.36 v 0.4 h -8.04 v -0.4 h 0.36 q 1,0 1.96,-0.64 0.96,-0.64 1.56,-1.88 l 9.04,-21.52 q 1.48,-3.24 1.48,-4.12 h 0.36 l 10.72,25.64 q 0.56,1.24 1.52,1.88 0.96,0.64 2,0.64 z m -19.68,-10.52 h 9.84 l -4.8,-12.84 z"
         style="stroke:#0f0f0f;stroke-width:0.56692916;stroke-miterlimit:4;stroke-dasharray:none;stroke-opacity:1"
         id="path1478"
         inkscape:connector-curvature="0" />
      <path
         d="m 314.20648,6.390565 q 0,-0.96 -0.68,-1.64 -0.68,-0.72 -1.6,-0.76 h -7.6 v 23.96 q 0.04,1.04 0.76,1.76 0.76,0.72 1.8,0.72 h 0.52 v 0.4 h -8.76 v -0.4 h 0.52 q 1.04,0 1.76,-0.72 0.76,-0.72 0.8,-1.72 v -24 h -7.6 q -0.96,0.04 -1.64,0.76 -0.64,0.68 -0.64,1.64 v 0.68 l -0.4,0.04 v -5.04 q 0.6,0.24 2.08,0.48 1.48,0.24 2.72,0.24 h 13.52 q 1.96,0 3.24,-0.28 1.32,-0.32 1.6,-0.44 v 5.04 l -0.4,-0.04 z"
         style="stroke:#0f0f0f;stroke-width:0.56692916;stroke-miterlimit:4;stroke-dasharray:none;stroke-opacity:1"
         id="path1480"
         inkscape:connector-curvature="0" />
      <path
         d="m 341.16148,30.430565 h 0.32 v 0.4 h -9 v -0.4 h 0.36 q 0.84,0 1.24,-0.52 0.44,-0.56 0.44,-1.04 0,-0.48 -0.16,-0.96 l -2.56,-6.8 h -10.8 l -2.68,6.84 q -0.16,0.48 -0.16,0.96 0,0.44 0.4,1 0.44,0.52 1.28,0.52 h 0.36 v 0.4 h -8.04 v -0.4 h 0.36 q 1,0 1.96,-0.64 0.96,-0.64 1.56,-1.88 l 9.04,-21.52 q 1.48,-3.24 1.48,-4.12 h 0.36 l 10.72,25.64 q 0.56,1.24 1.52,1.88 0.96,0.64 2,0.64 z m -19.68,-10.52 h 9.84 l -4.8,-12.84 z"
         style="stroke:#0f0f0f;stroke-width:0.56692916;stroke-miterlimit:4;stroke-dasharray:none;stroke-opacity:1"
         id="path1482"
         inkscape:connector-curvature="0" />
      <path
         d="m 343.47711,29.190565 q -0.12,-0.56 -0.12,-2.16 0,-1.6 0.6,-3.4 h 0.36 q -0.04,0.44 -0.04,0.88 0,2.44 1.48,4.08 1.48,1.6 3.92,1.6 2.52,0 4.12,-1.52 1.64,-1.52 1.64,-3.8 0,-2.32 -1.56,-3.76 l -7.68,-7.12 q -2.16,-2 -2.16,-4.84 0,-2.84 1.88,-4.84 1.92,-2.04 5.16,-2.04 1.52,0 3.44,0.4 h 1.56 v 4.92 h -0.36 q 0,-1.88 -1.32,-3 -1.28,-1.12 -3.32,-1.12 -2.04,0 -3.44,1.36 -1.36,1.36 -1.36,3.4 0,2.04 1.6,3.52 l 7.88,7.28 q 2,1.84 2,5.04 0,3.2 -2.04,5.28 -2.04,2.04 -5.44,2.04 -1.76,0 -3.76,-0.56 -1.96,-0.52 -3.04,-1.64 z"
         style="stroke:#0f0f0f;stroke-width:0.56692916;stroke-miterlimit:4;stroke-dasharray:none;stroke-opacity:1"
         id="path1484"
         inkscape:connector-curvature="0" />
      <path
         d="m 383.65961,6.390565 q 0,-0.96 -0.68,-1.64 -0.68,-0.72 -1.6,-0.76 h -7.6 v 23.96 q 0.04,1.04 0.76,1.76 0.76,0.72 1.8,0.72 h 0.52 v 0.4 h -8.76 v -0.4 h 0.52 q 1.04,0 1.76,-0.72 0.76,-0.72 0.8,-1.72 v -24 h -7.6 q -0.96,0.04 -1.64,0.76 -0.64,0.68 -0.64,1.64 v 0.68 l -0.4,0.04 v -5.04 q 0.6,0.24 2.08,0.48 1.48,0.24 2.72,0.24 h 13.52 q 1.96,0 3.24,-0.28 1.32,-0.32 1.6,-0.44 v 5.04 l -0.4,-0.04 z"
         style="stroke:#0f0f0f;stroke-width:0.56692916;stroke-miterlimit:4;stroke-dasharray:none;stroke-opacity:1"
         id="path1486"
         inkscape:connector-curvature="0" />
      <path
         d="m 387.70711,30.430565 q 1.04,0 1.76,-0.72 0.76,-0.76 0.8,-1.8 v -22.4 q 0,-0.96 -0.76,-1.6 -0.76,-0.68 -1.8,-0.68 h -0.48 l -0.04,-0.4 h 11.72 q 1.24,0 2.68,-0.24 1.48,-0.24 2.08,-0.48 v 5.04 h -0.4 v -0.72 q 0,-0.96 -0.68,-1.64 -0.64,-0.68 -1.56,-0.72 h -8.16 v 12.36 h 6.76 q 0.8,-0.04 1.36,-0.6 0.56,-0.56 0.56,-1.4 v -0.56 h 0.4 v 6.32 h -0.4 v -0.6 q 0,-0.8 -0.56,-1.36 -0.52,-0.56 -1.32,-0.6 h -6.8 v 11.96 h 5.72 q 2.96,0 4.52,-1.32 1.56,-1.32 2.6,-3.92 h 0.4 l -2.32,6.48 h -16.6 v -0.4 z"
         style="stroke:#0f0f0f;stroke-width:0.56692916;stroke-miterlimit:4;stroke-dasharray:none;stroke-opacity:1"
         id="path1488"
         inkscape:connector-curvature="0" />
      <path
         d="m 418.08336,4.070565 h -2.56 v 23.84 q 0,1.04 0.72,1.8 0.76,0.72 1.84,0.72 h 0.48 l 0.04,0.4 h -8.76 v -0.4 h 0.52 q 1.04,0 1.76,-0.72 0.76,-0.72 0.8,-1.76 v -22.2 q -0.04,-1.04 -0.8,-1.76 -0.72,-0.76 -1.76,-0.76 h -0.52 v -0.4 h 10.8 q 3.64,0 5.72,2.04 2.08,2 2.08,5.24 0,3.2 -2,5.56 -1.96,2.32 -4.8,2.32 0.6,0.28 1.4,1.12 0.84,0.8 1.48,1.68 3.44,4.92 4.48,6.08 1.04,1.12 1.48,1.56 0.44,0.4 0.96,0.8 0.52,0.4 1.04,0.64 1.16,0.56 2.48,0.56 v 0.4 h -2.2 q -1.72,0 -3.2,-0.6 -1.48,-0.64 -2.24,-1.28 -0.72,-0.68 -1.28,-1.28 -0.52,-0.64 -2.96,-4.16 -2.44,-3.52 -2.84,-4 -0.4,-0.52 -0.84,-1 -1.28,-1.36 -2.56,-1.36 v -0.4 q 0.32,0.04 0.84,0.04 0.52,0 1.28,-0.04 4.96,-0.12 6.24,-4.16 0.24,-0.8 0.24,-1.48 0,-0.72 0,-0.92 -0.08,-2.68 -1.4,-4.32 -1.32,-1.64 -3.56,-1.76 -0.96,-0.04 -2.4,-0.04 z"
         style="stroke:#0f0f0f;stroke-width:0.56692916;stroke-miterlimit:4;stroke-dasharray:none;stroke-opacity:1"
         id="path1490"
         inkscape:connector-curvature="0" />
    </g>
  </g>
</svg>
