<?xml version="1.0" encoding="UTF-8" standalone="no"?>
<!-- Created with Inkscape (http://www.inkscape.org/) -->

<svg
   xmlns:osb="http://www.openswatchbook.org/uri/2009/osb"
   xmlns:dc="http://purl.org/dc/elements/1.1/"
   xmlns:cc="http://creativecommons.org/ns#"
   xmlns:rdf="http://www.w3.org/1999/02/22-rdf-syntax-ns#"
   xmlns:svg="http://www.w3.org/2000/svg"
   xmlns="http://www.w3.org/2000/svg"
   xmlns:xlink="http://www.w3.org/1999/xlink"
   xmlns:sodipodi="http://sodipodi.sourceforge.net/DTD/sodipodi-0.dtd"
   xmlns:inkscape="http://www.inkscape.org/namespaces/inkscape"
   width="100"
   height="100"
   viewBox="0 0 26.458333 26.458334"
   version="1.1"
   id="svg8"
   inkscape:version="0.92.2 (5c3e80d, 2017-08-06)"
   sodipodi:docname="logo.svg">
  <sodipodi:namedview
     id="base"
     pagecolor="#ffffff"
     bordercolor="#666666"
     borderopacity="1.0"
     inkscape:pageopacity="0.0"
     inkscape:pageshadow="2"
     inkscape:zoom="3.72"
     inkscape:cx="61.175318"
     inkscape:cy="58.290693"
     inkscape:document-units="mm"
     inkscape:current-layer="layer1"
     showgrid="false"
     units="px"
     borderlayer="true"
     inkscape:window-width="1366"
     inkscape:window-height="705"
     inkscape:window-x="-8"
     inkscape:window-y="-8"
     inkscape:window-maximized="1"
     inkscape:snap-global="true" />
  <defs
     id="defs2">
    <linearGradient
       inkscape:collect="always"
       id="linearGradient6547">
      <stop
         style="stop-color:#4e55ce;stop-opacity:1;"
         offset="0"
         id="stop6543" />
      <stop
         style="stop-color:#4e55ce;stop-opacity:0;"
         offset="1"
         id="stop6545" />
    </linearGradient>
    <linearGradient
       id="linearGradient6489"
       osb:paint="solid">
      <stop
         style="stop-color:#000000;stop-opacity:1;"
         offset="0"
         id="stop6487" />
    </linearGradient>
    <linearGradient
       inkscape:collect="always"
       xlink:href="#linearGradient6547"
       id="linearGradient6551"
       x1="17.188732"
       y1="286.89413"
       x2="3.9845226"
       y2="286.51221"
       gradientUnits="userSpaceOnUse"
       gradientTransform="translate(0.69021739,-1.8405797)" />
    <filter
       style="color-interpolation-filters:sRGB;"
       inkscape:label="Drop Shadow"
       id="filter7019">
      <feFlood
         flood-opacity="0.498039"
         flood-color="rgb(0,0,0)"
         result="flood"
         id="feFlood7009" />
      <feComposite
         in="flood"
         in2="SourceGraphic"
         operator="in"
         result="composite1"
         id="feComposite7011" />
      <feGaussianBlur
         in="composite1"
         stdDeviation="1"
         result="blur"
         id="feGaussianBlur7013" />
      <feOffset
         dx="-29.9"
         dy="6"
         result="offset"
         id="feOffset7015" />
      <feComposite
         in="SourceGraphic"
         in2="offset"
         operator="over"
         result="fbSourceGraphic"
         id="feComposite7017" />
      <feColorMatrix
         result="fbSourceGraphicAlpha"
         in="fbSourceGraphic"
         values="0 0 0 -1 0 0 0 0 -1 0 0 0 0 -1 0 0 0 0 1 0"
         id="feColorMatrix8533" />
      <feFlood
         id="feFlood8535"
         flood-opacity="0.498039"
         flood-color="rgb(0,0,0)"
         result="flood"
         in="fbSourceGraphic" />
      <feComposite
         in2="fbSourceGraphic"
         id="feComposite8537"
         in="flood"
         operator="in"
         result="composite1" />
      <feGaussianBlur
         id="feGaussianBlur8539"
         in="composite1"
         stdDeviation="0.3"
         result="blur" />
      <feOffset
         id="feOffset8541"
         dx="0.8"
         dy="0.3"
         result="offset" />
      <feComposite
         in2="offset"
         id="feComposite8543"
         in="fbSourceGraphic"
         operator="over"
         result="composite2" />
    </filter>
    <filter
       style="color-interpolation-filters:sRGB"
       inkscape:label="Drop Shadow"
       id="filter8999-3">
      <feFlood
         flood-opacity="0.498039"
         flood-color="rgb(0,0,0)"
         result="flood"
         id="feFlood8989-4" />
      <feComposite
         in="flood"
         in2="SourceGraphic"
         operator="in"
         result="composite1"
         id="feComposite8991-5" />
      <feGaussianBlur
         in="composite1"
         stdDeviation="0.1"
         result="blur"
         id="feGaussianBlur8993-0" />
      <feOffset
         dx="0.4"
         dy="2.77556e-017"
         result="offset"
         id="feOffset8995-7" />
      <feComposite
         in="offset"
         in2="offset"
         operator="atop"
         result="composite2"
         id="feComposite8997-7" />
    </filter>
    <linearGradient
       inkscape:collect="always"
       xlink:href="#linearGradient6547"
       id="linearGradient9273"
       gradientUnits="userSpaceOnUse"
       gradientTransform="translate(1.0714614,-0.46810131)"
       x1="17.188732"
       y1="286.89413"
       x2="3.9845226"
       y2="286.51221" />
  </defs>
  <metadata
     id="metadata5">
    <rdf:RDF>
      <cc:Work
         rdf:about="">
        <dc:format>image/svg+xml</dc:format>
        <dc:type
           rdf:resource="http://purl.org/dc/dcmitype/StillImage" />
        <dc:title></dc:title>
      </cc:Work>
    </rdf:RDF>
  </metadata>
  <g
     transform="translate(0,-270.54165)"
     id="layer1"
     inkscape:groupmode="layer"
     inkscape:label="Ebene 1">
    <path
       sodipodi:nodetypes="ccccc"
       inkscape:connector-curvature="0"
       id="path6154"
       d="m 22.621765,277.00505 -17.7402438,3.24112 v 9.72336 l 17.7402438,3.24111 z"
       style="opacity:1;fill:url(#linearGradient9273);fill-opacity:1;fill-rule:evenodd;stroke:#0f0f0f;stroke-width:0.30000001;stroke-linecap:butt;stroke-linejoin:miter;stroke-miterlimit:4;stroke-dasharray:none;stroke-opacity:1" />
    <path
       id="path0"
       d="m 18.595097,273.10638 c 0.377013,0.13885 0.855481,0.35491 0.957194,0.43288 0.176976,0.13631 0.332858,0.0528 0.401871,-0.21735 0.09393,-0.36837 0.136371,-0.33789 0.07372,0.0542 -0.02376,0.14875 -0.04734,0.60069 -0.05244,1.00433 -0.01643,1.30065 -0.289779,2.27925 -1.029773,3.72602 -0.420007,0.82115 -0.645347,1.1287 -1.17351,1.61108 -0.426004,0.38898 -0.541989,0.63922 -0.415199,0.88798 0.07122,0.13984 0.15135,0.0839 0.351588,-0.24827 0.530189,-0.87789 1.452618,-1.67145 1.597445,-1.35156 0.02169,0.0479 0.0282,0.12046 0.01452,0.16176 -0.0137,0.0405 -0.03777,0.14382 -0.05345,0.22855 -0.07667,0.41231 -0.11301,0.55117 -0.221309,0.84483 -0.112981,0.30653 -0.171226,0.39077 -0.573798,0.83236 -0.06165,0.0676 -0.188936,0.16671 -0.282661,0.2205 -0.127417,0.073 -0.182623,0.1339 -0.224388,0.24647 -0.03032,0.082 -0.0689,0.14921 -0.0855,0.14921 -0.01672,-6e-5 -0.05143,0.0604 -0.07726,0.13389 -0.02575,0.074 -0.06372,0.16401 -0.08417,0.20122 -0.02918,0.0532 -0.02562,0.0905 0.01656,0.17432 0.02959,0.0588 0.0538,0.15231 0.0538,0.20702 0,0.27652 0.09667,0.50429 0.285888,0.67206 0.395983,0.35091 0.616541,0.68645 0.773421,1.18184 0.05747,0.18194 0.220339,0.62322 0.362825,0.98375 0.233696,0.59128 0.267244,0.7072 0.306886,1.06296 0.02449,0.22007 0.06564,0.53165 0.09141,0.69261 0.171516,1.07072 0.063,1.50753 -0.534126,2.17956 -0.134606,0.15153 -0.284521,0.3724 -0.334008,0.49129 -0.230822,0.55529 -0.916332,0.73502 -1.377883,0.3836 -0.363049,-0.2765 -0.530842,-0.50401 -0.699922,-0.94319 -0.04445,-0.11525 -0.148106,-0.30249 -0.230068,-0.41543 -0.778132,-1.07073 -0.907266,-1.62488 -0.690699,-2.9087 0.03153,-0.18687 0.03111,-0.2532 -0.003,-0.43873 -0.09052,-0.4929 -0.09354,-1.22439 -0.0048,-1.14014 0.08918,0.0847 -0.02289,-0.0681 -0.15501,-0.21154 -0.234439,-0.25408 -0.275237,-0.46072 -0.189694,-0.95262 0.05935,-0.34104 0.01468,-0.81113 -0.09667,-1.01899 -0.05852,-0.10933 -0.07135,-0.17834 -0.07934,-0.42572 0,0 -0.0095,-0.29533 -0.0095,-0.29533 0,0 -0.09929,0.0225 -0.09929,0.0225 -0.2376,0.056 -0.9255,-0.6611 -0.9255,-0.9545 0,-0.0358 -0.01662,-0.0765 -0.03712,-0.087 -0.02034,-0.01 -0.03703,-0.0358 -0.03703,-0.0573 0,-0.0225 -0.03886,-0.0867 -0.08621,-0.14474 -0.04718,-0.0584 -0.09247,-0.14828 -0.100823,-0.19988 -0.0084,-0.0515 -0.03241,-0.1219 -0.05339,-0.15638 -0.111157,-0.18151 0.143951,-0.17256 0.547878,0.0226 0.368061,0.17837 0.481755,0.26396 0.767021,0.57923 0.123577,0.13672 0.241507,0.24915 0.261151,0.24826 0.05779,-8e-4 0.07563,-0.1506 0.02891,-0.24108 -0.08001,-0.15505 -0.112903,-0.19718 -0.381849,-0.48758 -1.076977,-1.16314 -1.560935,-2.43603 -1.441244,-3.70233 0.01718,-0.18282 0.03009,-0.50846 0.02844,-0.72363 -0.002,-0.27023 0.003,-0.35045 0.01577,-0.26036 0.02382,0.16669 0.05515,0.20478 0.131346,0.15774 0.06787,-0.0402 0.508471,-0.78205 0.584266,-0.98341 0.05896,-0.15684 0.06452,-0.0834 0.0071,0.0955 -0.06525,0.20345 -0.294291,0.72463 -0.404004,0.92039 -0.257614,0.45969 -0.158547,0.55684 0.269218,0.25678 0.145048,-0.10184 0.339683,-0.23664 0.431605,-0.29936 0.09256,-0.0627 0.192293,-0.13137 0.221116,-0.15185 0.188214,-0.13389 -0.272004,0.29444 -0.552387,0.51477 -0.590199,0.46429 -0.528853,0.38137 -0.554448,0.74159 -0.03476,0.48901 0.05437,0.89357 0.337116,1.522 0.208515,0.46335 0.76904,1.28247 1.019399,1.48347 0.110847,0.0887 0.244438,0.32892 0.244438,0.44049 0,0.0358 0.01221,0.0762 0.02715,0.0878 0.05648,0.0458 0.02356,-0.0941 -0.08004,-0.34057 -0.292089,-0.69511 -0.360017,-0.95798 -0.430156,-1.65847 -0.02946,-0.29443 -0.01841,-0.46359 0.0163,-0.24827 0.08522,0.52979 0.245241,1.04955 0.45386,1.47002 0.0948,0.19092 0.216063,0.47757 0.269096,0.63604 0.133416,0.39884 0.280534,0.49882 0.717155,0.47884 0.514838,-0.0225 0.660834,-0.24065 0.487124,-0.73748 -0.135299,-0.38672 -0.154022,-0.57328 -0.104902,-1.041 0.04747,-0.45182 0.159665,-1.24273 0.180858,-1.274 0.0078,-0.01 0.0052,0.38002 -0.0055,0.86881 0,0 -0.0194,0.88819 -0.0194,0.88819 0,0 0.07948,0.20793 0.07948,0.20793 0.144338,0.37824 0.282596,0.47427 0.41019,0.28055 0.03283,-0.0497 0.173312,-0.17165 0.313295,-0.27201 0.843157,-0.60304 1.231009,-1.88439 1.006459,-3.39886 -0.0992,-0.66897 -0.06874,-0.68923 0.102247,-0.0654 0.119465,0.43558 0.153945,0.63064 0.167503,0.94858 0.02403,0.56439 0.148323,0.39928 0.374042,-0.50336 0.445016,-1.78005 0.385921,-2.22096 -0.346695,-2.64257 -0.197978,-0.11384 -0.66694,-0.4506 -0.66694,-0.47805 0,-0.0314 0.06036,-0.0179 0.218281,0.0403"
       inkscape:connector-curvature="0"
       style="fill:#000000;fill-opacity:1;fill-rule:evenodd;stroke:none;stroke-width:0.034;stroke-miterlimit:4;stroke-dasharray:none;stroke-opacity:1" />
    <rect
       y="292.87326"
       x="3.3581924"
       height="2.3265858"
       width="3.1279655"
       id="rect4714"
       style="opacity:0;fill:none;fill-opacity:1;stroke:#000005;stroke-width:0.67020035;stroke-linejoin:bevel;stroke-miterlimit:6.9000001;stroke-dasharray:none;stroke-dashoffset:12.70281696;stroke-opacity:1;paint-order:fill markers stroke" />
    <rect
       ry="0.5299446"
       y="292.40793"
       x="3.5391493"
       height="3.2442937"
       width="3.2572198"
       id="rect4716"
       style="opacity:0;fill:none;fill-opacity:1;stroke:#000005;stroke-width:0.67020035;stroke-linejoin:bevel;stroke-miterlimit:6.9000001;stroke-dasharray:none;stroke-dashoffset:12.70281696;stroke-opacity:1;paint-order:fill markers stroke" />
    <g
       id="text6363"
       style="font-style:normal;font-variant:normal;font-weight:normal;font-stretch:normal;font-size:14.04514313px;line-height:125%;font-family:'Bell MT';-inkscape-font-specification:'Bell MT';letter-spacing:0px;word-spacing:0px;fill:#000000;fill-opacity:1;stroke:none;stroke-width:0.35112858px;stroke-linecap:butt;stroke-linejoin:miter;stroke-opacity:1;filter:url(#filter7019)"
       transform="matrix(0.42250119,0,0,0.36521681,15.639073,182.34352)"
       aria-label="H">
      <path
         id="path6365"
         style="font-style:normal;font-variant:normal;font-weight:normal;font-stretch:normal;font-family:'Bell MT';-inkscape-font-specification:'Bell MT';stroke-width:0.35112858px"
         d="m -23.955031,290.45938 c 0,0 -0.121475,-3.87366 -0.121475,-3.87366 0,-1.70067 0.166644,-2.84377 0.503813,-3.43613 0.333119,-0.60931 0.909298,-0.99838 1.74767,-1.16477 0.502048,-0.0996 0.757248,-0.25465 0.757248,-0.46338 0,-0.18885 -0.153459,-0.25084 -0.457343,-0.18661 0,0 -4.008136,0.98188 -4.008136,0.98188 0,0 -2.8899,0.53877 -2.8899,0.53877 -0.209432,0.0439 -0.313305,0.14034 -0.313305,0.2896 0,0.13268 0.06799,0.1855 0.204696,0.15832 0.556621,-0.11065 0.999866,-0.1047 1.321527,0.0217 0.326901,0.12852 0.54781,0.41489 0.659172,0.85933 0.10395,0.44814 0.192326,1.76799 0.264922,3.96365 0.06474,2.19476 0.09718,3.79416 0.09718,4.79302 0,0 0.03656,3.26635 0.03656,3.26635 0,1.01744 -0.08927,1.6661 -0.266647,1.94416 -0.175854,0.26693 -0.432891,0.45507 -0.768028,0.56477 -0.337237,0.0979 -0.67633,0.13322 -1.017041,0.10767 -0.233567,-0.0132 -0.349309,0.0428 -0.349309,0.16778 0,0.13331 0.09761,0.22053 0.294317,0.26198 0,0 3.703397,0.66996 3.703397,0.66996 0,0 2.820227,0.68981 2.820227,0.68981 0.351661,0.074 0.529532,0.0222 0.529532,-0.15615 0,-0.14865 -0.127191,-0.25332 -0.379481,-0.31352 -0.789054,-0.20567 -1.287508,-0.40483 -1.513857,-0.60125 -0.233341,-0.19619 -0.418249,-0.51828 -0.555915,-0.9657 -0.136803,-0.44461 -0.213945,-1.16687 -0.232056,-2.16824 0,0 -0.06778,-5.08275 -0.06778,-5.08275 0.790169,-0.0514 1.624217,-0.0756 2.505501,-0.0711 4.270717,0.022 7.417808,0.11832 8.873316,0.29267 0.115253,2.26441 0.173062,4.13183 0.173062,5.59508 0,1.64027 -0.04337,2.64228 -0.129915,3.00519 -0.08627,0.36176 -0.350548,0.66684 -0.787715,0.91311 -0.443971,0.22817 -1.035923,0.33094 -1.765901,0.3115 -0.441286,-0.01 -0.659145,0.0689 -0.659145,0.23513 0,0.19948 0.140758,0.32892 0.424591,0.38882 0.09097,0.0192 0.221474,0.0355 0.392099,0.049 0.720881,0.0833 2.281112,0.37429 4.832579,0.90614 3.0615371,0.63816 5.1074091,1.11823 5.9001051,1.39272 0.172488,0.0503 0.345926,0.0939 0.520323,0.13074 0.450049,0.0951 0.677468,0.0395 0.677468,-0.16778 0,-0.23495 -0.306145,-0.44149 -0.909778,-0.61708 -1.451228,-0.40967 -2.447821,-0.88845 -3.030542,-1.44219 -0.571689,-0.54322 -0.955313,-2.23978 -1.157908,-5.08273 -0.217916,-2.82457 -0.326274,-6.22862 -0.326274,-10.22769 0,-3.25241 0.200365,-5.33449 0.605211,-6.25559 0.410432,-0.93379 1.434974,-1.6109 3.13785,-2.03888 0.397769,-0.10561 0.598554,-0.25406 0.598554,-0.44432 0,-0.27176 -0.409769,-0.32196 -1.213585,-0.15389 0,0 -9.4556141,1.87556 -9.4556141,1.87556 -0.563994,0.11902 -0.892777,0.20508 -0.995071,0.25992 -0.114594,0.0462 -0.1717,0.1465 -0.1717,0.30117 0,0.17673 0.165325,0.24869 0.499184,0.21556 1.311786,-0.14637 2.146573,-0.10147 2.456661,0.14242 0.299327,0.24933 0.45023,2.12982 0.45023,5.63943 0,0.3651 -0.02161,1.64406 -0.06476,3.83431 -1.428247,0.11011 -3.016005,0.17232 -4.728936,0.18997 -2.048828,0.0211 -4.290306,0.005 -6.649884,-0.0434 0,0 10e-6,-4.5e-4 10e-6,-4.5e-4"
         inkscape:connector-curvature="0" />
    </g>
    <path
       style="opacity:0;fill:#000000;fill-opacity:1;stroke:#e50005;stroke-width:0.67500001;stroke-linejoin:miter;stroke-miterlimit:4;stroke-dasharray:none;stroke-dashoffset:0;stroke-opacity:0.99065396;paint-order:fill markers stroke"
       id="path6388"
       d="m 38.553726,290.37123 c -0.475875,-0.0152 -0.952156,-0.0123 -1.4282,-0.009 -0.42077,0.006 -0.841574,9.5e-4 -1.262348,-0.001 -0.515348,-0.003 -1.030679,-4.5e-4 -1.546016,0.002 -0.420794,0.004 -0.841584,2.1e-4 -1.26237,-0.002 -0.517427,-0.003 -1.034851,1.5e-4 -1.552278,6.9e-4 -0.393999,-0.0186 -0.787138,-0.0502 -1.181293,-0.0658 -0.25734,-0.009 -0.514851,-0.0115 -0.77233,-0.0131 0,0 0.967293,-0.70155 0.967293,-0.70155 v 0 c 0.259183,0.003 0.518427,0.005 0.77747,0.0145 0.389795,0.0185 0.77824,0.0565 1.168321,0.0688 0.516805,5.3e-4 1.033608,0.003 1.550413,6.8e-4 0.422675,-0.002 0.845357,-0.006 1.268037,-0.002 0.513252,0.003 1.026496,0.005 1.539756,0.002 0.421984,-0.002 0.843997,-0.007 1.26597,-0.001 0.484193,0.004 0.96859,0.006 1.452629,-0.009 0,0 -0.985054,0.71568 -0.985054,0.71568 z"
       inkscape:connector-curvature="0" />
    <path
       style="opacity:0;fill:#000000;fill-opacity:1;stroke:#e50005;stroke-width:0.67500001;stroke-linejoin:miter;stroke-miterlimit:4;stroke-dasharray:none;stroke-dashoffset:0;stroke-opacity:0.99065396;paint-order:fill markers stroke"
       id="path6390"
       d="m 31.969744,289.40897 c 0.313716,0.007 0.627221,-0.002 0.940358,0.0193 0.980027,0.0766 1.951768,0.24703 2.922733,0.39834 1.576898,0.25716 3.167356,0.40988 4.755478,0.57658 0.393417,0.0423 0.787141,0.0815 1.181084,0.11858 0,0 -0.959284,0.68038 -0.959284,0.68038 v 0 c -0.376901,-0.0513 -0.753599,-0.10411 -1.130609,-0.15464 -1.576208,-0.20229 -3.156887,-0.36973 -4.729671,-0.59868 -0.998913,-0.13567 -2.000514,-0.28087 -3.008503,-0.32384 -0.318796,-0.009 -0.63778,-0.005 -0.95664,-3.5e-4 0,0 0.985054,-0.71568 0.985054,-0.71568 z"
       inkscape:connector-curvature="0" />
    <path
       id="path0-9"
       d="m 30.415168,272.98062 c 0.377013,0.13885 0.855481,0.35491 0.957194,0.43288 0.176976,0.13631 0.332858,0.0528 0.401871,-0.21735 0.09393,-0.36837 0.136371,-0.33789 0.07372,0.0542 -0.02376,0.14875 -0.04734,0.60069 -0.05244,1.00433 -0.01643,1.30065 -0.289779,2.27925 -1.029773,3.72602 -0.420007,0.82115 -0.645347,1.1287 -1.17351,1.61108 -0.426004,0.38898 -0.541989,0.63922 -0.415199,0.88798 0.07122,0.13984 0.15135,0.0839 0.351588,-0.24827 0.530189,-0.87789 1.452618,-1.67145 1.597445,-1.35156 0.02169,0.0479 0.0282,0.12046 0.01452,0.16176 -0.0137,0.0405 -0.03777,0.14382 -0.05345,0.22855 -0.07667,0.41231 -0.11301,0.55117 -0.221309,0.84483 -0.112981,0.30653 -0.171226,0.39077 -0.573798,0.83236 -0.06165,0.0676 -0.188936,0.16671 -0.282661,0.2205 -0.127417,0.073 -0.182623,0.1339 -0.224388,0.24647 -0.03032,0.082 -0.0689,0.14921 -0.0855,0.14921 -0.01672,-6e-5 -0.05143,0.0604 -0.07726,0.13389 -0.02575,0.074 -0.06372,0.16401 -0.08417,0.20122 -0.531723,1.82358 1.704865,7.53366 -1.978916,3.32296 -0.09052,-0.4929 -0.09354,-1.22439 -0.0048,-1.14014 0.08918,0.0847 -0.02289,-0.0681 -0.15501,-0.21154 -0.234439,-0.25408 -0.275237,-0.46072 -0.189694,-0.95262 0.05935,-0.34104 0.01468,-0.81113 -0.09667,-1.01899 -0.05852,-0.10933 -0.07135,-0.17834 -0.07934,-0.42572 l -0.0095,-0.29533 -0.09929,0.0225 c -0.2376,0.056 -0.9255,-0.6611 -0.9255,-0.9545 0,-0.0358 -0.01662,-0.0765 -0.03712,-0.087 -0.02034,-0.01 -0.03703,-0.0358 -0.03703,-0.0573 0,-0.0225 -0.03886,-0.0867 -0.08621,-0.14474 -0.04718,-0.0584 -0.09247,-0.14828 -0.100823,-0.19988 -0.0084,-0.0515 -0.03241,-0.1219 -0.05339,-0.15638 -0.111157,-0.18151 0.143951,-0.17256 0.547878,0.0226 0.368061,0.17837 0.481755,0.26396 0.767021,0.57923 0.123577,0.13672 0.241507,0.24915 0.261151,0.24826 0.05779,-8e-4 0.07563,-0.1506 0.02891,-0.24108 -0.08001,-0.15505 -0.112903,-0.19718 -0.381849,-0.48758 -1.076977,-1.16314 -1.560935,-2.43603 -1.441244,-3.70233 0.01718,-0.18282 0.03009,-0.50846 0.02844,-0.72363 -0.002,-0.27023 0.003,-0.35045 0.01577,-0.26036 0.02382,0.16669 0.05515,0.20478 0.131346,0.15774 0.06787,-0.0402 0.508471,-0.78205 0.584266,-0.98341 0.05896,-0.15684 0.06452,-0.0834 0.0071,0.0955 -0.06525,0.20345 -0.294291,0.72463 -0.404004,0.92039 -0.257614,0.45969 -0.158547,0.55684 0.269218,0.25678 0.145048,-0.10184 0.339683,-0.23664 0.431605,-0.29936 0.09256,-0.0627 0.192293,-0.13137 0.221116,-0.15185 0.188214,-0.13389 -0.272004,0.29444 -0.552387,0.51477 -0.590199,0.46429 -0.528853,0.38137 -0.554448,0.74159 -0.03476,0.48901 0.05437,0.89357 0.337116,1.522 0.208515,0.46335 0.76904,1.28247 1.019399,1.48347 0.110847,0.0887 0.244438,0.32892 0.244438,0.44049 0,0.0358 0.01221,0.0762 0.02715,0.0878 0.05648,0.0458 0.02356,-0.0941 -0.08004,-0.34057 -0.292089,-0.69511 -0.360017,-0.95798 -0.430156,-1.65847 -0.02946,-0.29443 -0.01841,-0.46359 0.0163,-0.24827 0.08522,0.52979 0.245241,1.04955 0.45386,1.47002 0.0948,0.19092 0.216063,0.47757 0.269096,0.63604 0.133416,0.39884 0.280534,0.49882 0.717155,0.47884 0.514838,-0.0225 0.660834,-0.24065 0.487124,-0.73748 -0.135299,-0.38672 -0.154022,-0.57328 -0.104902,-1.041 0.04747,-0.45182 0.159665,-1.24273 0.180858,-1.274 0.0078,-0.01 0.0052,0.38002 -0.0055,0.86881 l -0.0194,0.88819 0.07948,0.20793 c 0.144338,0.37824 0.282596,0.47427 0.41019,0.28055 0.03283,-0.0497 0.173312,-0.17165 0.313295,-0.27201 0.843157,-0.60304 1.231009,-1.88439 1.006459,-3.39886 -0.0992,-0.66897 -0.06874,-0.68923 0.102247,-0.0654 0.119465,0.43558 0.153945,0.63064 0.167503,0.94858 0.02403,0.56439 0.148323,0.39928 0.374042,-0.50336 0.445016,-1.78005 0.385921,-2.22096 -0.346695,-2.64257 -0.197978,-0.11384 -0.66694,-0.4506 -0.66694,-0.47805 0,-0.0314 0.06036,-0.0179 0.218281,0.0403"
       inkscape:connector-curvature="0"
       style="opacity:1;fill:#000000;fill-opacity:0.69105691;fill-rule:evenodd;stroke:none;stroke-width:0.034;stroke-miterlimit:4;stroke-dasharray:none;stroke-opacity:1;filter:url(#filter8999-3)"
       transform="matrix(1.1720833,0.06632476,-0.06632476,1.1720833,2.1785492,-50.052533)"
       sodipodi:nodetypes="cccccccccccccccccccccccccccscsccccccccccccccccccccccsccccccccccccccccccccsc" />
  </g>
</svg>
