<?xml version="1.0" encoding="UTF-8" standalone="no"?>
<!-- Created with Inkscape (http://www.inkscape.org/) -->

<svg
   xmlns:dc="http://purl.org/dc/elements/1.1/"
   xmlns:cc="http://creativecommons.org/ns#"
   xmlns:rdf="http://www.w3.org/1999/02/22-rdf-syntax-ns#"
   xmlns:svg="http://www.w3.org/2000/svg"
   xmlns="http://www.w3.org/2000/svg"
   xmlns:sodipodi="http://sodipodi.sourceforge.net/DTD/sodipodi-0.dtd"
   xmlns:inkscape="http://www.inkscape.org/namespaces/inkscape"
   width="24.305"
   height="24.305"
   viewBox="0 0 6.4306978 6.4306982"
   version="1.1"
   id="svg8"
   inkscape:version="0.92.2 (5c3e80d, 2017-08-06)"
   sodipodi:docname="mark_clear.svg">
  <defs
     id="defs2" />
  <sodipodi:namedview
     id="base"
     pagecolor="#ffffff"
     bordercolor="#666666"
     borderopacity="1.0"
     inkscape:pageopacity="0.0"
     inkscape:pageshadow="2"
     inkscape:zoom="7.9847123"
     inkscape:cx="17.332423"
     inkscape:cy="-4.3637803"
     inkscape:document-units="mm"
     inkscape:current-layer="layer1"
     showgrid="false"
     units="px"
     borderlayer="true"
     inkscape:window-width="1366"
     inkscape:window-height="705"
     inkscape:window-x="-8"
     inkscape:window-y="-8"
     inkscape:window-maximized="1" />
  <metadata
     id="metadata5">
    <rdf:RDF>
      <cc:Work
         rdf:about="">
        <dc:format>image/svg+xml</dc:format>
        <dc:type
           rdf:resource="http://purl.org/dc/dcmitype/StillImage" />
        <dc:title></dc:title>
      </cc:Work>
    </rdf:RDF>
  </metadata>
  <g
     inkscape:label="Ebene 1"
     inkscape:groupmode="layer"
     id="layer1"
     transform="translate(0,-290.56929)">
    <path
       style="fill:#4e55ce;fill-opacity:1;stroke:none;stroke-width:0.51570863;stroke-linecap:round;stroke-linejoin:round;stroke-dasharray:0.38982701, 0.77965402;stroke-opacity:1"
       inkscape:connector-curvature="0"
       d="M 0.80098418,290.98056 H 5.4067584 c 0.2122672,0 0.3828254,0.17697 0.3842304,0.39592 l 0.020645,3.21733 c 0.00141,0.21893 -1.8235445,1.97499 -2.0357912,1.97196 l -2.97485787,-0.0425 c -0.21186286,-0.002 -0.38384659,-0.17736 -0.38384659,-0.39631 v -4.7504 c 0,-0.21853 0.17196332,-0.39591 0.38384659,-0.39591 z"
       id="rect2902"
       sodipodi:nodetypes="cssssssssc" />
    <path
       style="opacity:1;fill:none;fill-opacity:1;stroke:#e3352d;stroke-width:0.45006034;stroke-linecap:round;stroke-linejoin:round;stroke-miterlimit:4;stroke-dasharray:0.36004831, 0.72009666;stroke-dashoffset:3.12851262;stroke-opacity:1"
       inkscape:connector-curvature="0"
       d="M 0.80098459,290.98063 H 5.406759 c 0.2122672,0 0.3798419,0.17703 0.3842301,0.39593 l 0.061933,3.08956 c 0.00438,0.21888 -1.8648336,2.10275 -2.0770803,2.09972 l -2.97485692,-0.0426 c -0.21186276,-0.002 -0.38384663,-0.17737 -0.38384663,-0.39632 v -4.75039 c 0,-0.21854 0.17196339,-0.39592 0.38384663,-0.39592 z"
       id="rect2902-4"
       sodipodi:nodetypes="cssssssssc" />
    <g
       id="g899"
       transform="matrix(1.0738236,0,0,1.0738236,-1.0113884,-21.982731)">
      <g
         transform="matrix(1.0581717,0,0,1.0581717,0.574531,-16.867094)"
         id="g893">
        <g
           transform="matrix(0.00665801,0,0,0.00665801,3.3326509,293.89067)"
           style="display:block"
           id="svgg">
          <path
             style="fill:#f7f7f7;fill-rule:evenodd;stroke:none"
             inkscape:connector-curvature="0"
             id="path0"
             d="m 87.083,9.008 c -5.064,0.793 -7.127,1.999 -12.356,7.223 -25.013,24.988 -60.593,61.016 -61.279,62.051 -4.896,7.389 -3.885,17.691 2.606,26.551 1.263,1.723 0.596,1.048 57.531,58.212 24.363,24.46 32.613,32.84 32.957,33.477 0.564,1.045 0.678,4.254 0.195,5.463 -0.203,0.507 -10.503,10.808 -44.873,44.878 -24.535,24.321 -45.196,44.858 -45.913,45.637 -7.758,8.429 -9.419,20.87 -3.785,28.356 1.076,1.43 64.896,64.056 66.358,65.117 6.546,4.749 16.478,4.375 24.726,-0.932 2.804,-1.804 -1.046,1.972 60.88,-59.708 34.726,-34.589 33.579,-33.5 35.287,-33.5 0.754,0 1.214,0.101 1.717,0.375 0.426,0.233 17.716,17.56 45.695,45.792 24.754,24.979 45.651,45.955 46.437,46.612 8.829,7.39 20.376,8.658 27.799,3.054 0.847,-0.639 62.476,-62.882 64.303,-64.942 5.361,-6.048 5.636,-15.789 0.692,-24.484 -1.935,-3.403 -2.504,-4.014 -22.729,-24.407 -58.747,-59.234 -70.286,-70.918 -70.664,-71.552 -0.54,-0.904 -0.595,-2.976 -0.108,-4.06 0.231,-0.511 11.667,-11.941 44.917,-44.889 24.534,-24.312 45.343,-45.001 46.243,-45.976 7.202,-7.805 9.465,-18.226 5.615,-25.856 -1.032,-2.046 -1.899,-3.092 -5.821,-7.024 C 365.355,56.271 322.882,14.265 322,13.64 c -7.422,-5.262 -18.546,-4.12 -27.493,2.825 -0.853,0.662 -16.148,15.766 -38.174,37.698 -49.96,49.747 -53.164,52.917 -53.833,53.265 -0.822,0.428 -2.851,0.431 -3.792,0.007 -0.527,-0.238 -9.333,-9.028 -35.729,-35.667 C 104.778,13.031 106.863,15.098 103.786,13.092 98.88,9.895 92.063,8.228 87.083,9.008 m 4.944,38.616 c 2.454,0.952 0.949,-0.512 55.181,53.693 l 51.958,51.931 52.126,-52.108 52.125,-52.109 1.583,-0.755 c 2.67,-1.273 5.32,-1.465 7.417,-0.538 1.536,0.679 36.65,35.766 37.457,37.429 1.295,2.667 0.592,6.549 -1.722,9.507 -0.391,0.5 -23.891,24.06 -52.223,52.355 l -51.512,51.445 52.109,52.138 52.11,52.138 0.752,1.583 c 1.336,2.813 1.505,5.409 0.488,7.503 -0.697,1.435 -35.657,36.613 -37.163,37.395 -2.445,1.269 -5.356,1.144 -8.296,-0.356 -1.094,-0.558 -4.41,-3.836 -53.209,-52.609 l -52.041,-52.014 -51.875,51.854 c -45.376,45.357 -52.022,51.939 -53.042,52.527 -3.171,1.83 -6.662,1.91 -9.187,0.211 -1.347,-0.907 -35.872,-35.498 -36.465,-36.534 -1.407,-2.464 -1.013,-6.154 0.976,-9.12 0.529,-0.79 15.576,-15.938 52.5,-52.856 l 51.758,-51.749 -51.734,-51.751 C 59.275,103.998 50.222,94.865 49.545,93.817 47.558,90.74 47.235,87.126 48.722,84.627 49.385,83.514 84.753,48.28 85.667,47.823 c 1.943,-0.974 4.185,-1.044 6.36,-0.199" />
          <path
             style="fill:#e3352d;fill-opacity:1;fill-rule:evenodd;stroke:none"
             inkscape:connector-curvature="0"
             id="path1"
             d="M 86.372,1.517 C 79.155,2.357 76.095,4.199 67.33,12.983 35.063,45.32 8.773,71.927 7.779,73.25 c -6.651,8.863 -6.485,22.351 0.412,33.472 2.375,3.829 0.246,1.643 61.715,63.359 l 29.156,29.273 -4.489,4.468 C 92.104,206.28 72.458,225.754 50.917,247.098 12.048,285.61 9.988,287.674 8.6,289.48 c -8.802,11.455 -9.765,26.052 -2.375,36.023 1.162,1.569 64.716,64.106 66.971,65.901 8.695,6.918 22.016,7.231 32.847,0.772 4.48,-2.672 0.509,1.179 64.739,-62.769 l 28.635,-28.51 43.416,43.818 c 23.879,24.1 44.242,44.531 45.25,45.404 11.436,9.893 27.173,11.372 37.579,3.531 1.22,-0.919 63.172,-63.412 65.464,-66.035 8.749,-10.014 7.807,-26.373 -2.213,-38.448 -0.723,-0.871 -6.005,-6.311 -11.739,-12.09 -41.258,-41.582 -76.091,-76.792 -76.091,-76.914 0,-0.08 19.653,-19.63 43.674,-43.446 24.02,-23.815 44.189,-43.863 44.819,-44.55 10.068,-10.989 12.054,-26.624 4.714,-37.115 -1.204,-1.72 -2.324,-2.848 -39.79,-40.069 C 336.444,17.046 327.782,8.552 326.75,7.775 316.718,0.219 301.354,1.439 289.583,10.727 c -0.885,0.698 -15.6,15.225 -35.916,35.455 -18.93,18.85 -38.623,38.44 -43.763,43.534 l -9.346,9.261 -39.987,-40.326 C 138.578,36.472 118.896,16.619 116.833,14.534 106.479,4.065 97.49,0.225 86.372,1.517 m 8.258,7.795 c 4.273,0.913 8.406,2.91 11.787,5.696 1.432,1.181 11.581,11.365 56.562,56.76 26.396,26.639 35.202,35.429 35.729,35.667 0.941,0.424 2.97,0.421 3.792,-0.007 0.669,-0.348 3.873,-3.518 53.833,-53.265 22.026,-21.932 37.321,-37.036 38.174,-37.698 8.947,-6.945 20.071,-8.087 27.493,-2.825 0.882,0.625 43.355,42.631 61.513,60.836 3.922,3.932 4.789,4.978 5.821,7.024 3.85,7.63 1.587,18.051 -5.615,25.856 -0.9,0.975 -21.709,21.664 -46.243,45.976 -33.25,32.948 -44.686,44.378 -44.917,44.889 -0.487,1.084 -0.432,3.156 0.108,4.06 0.378,0.634 11.917,12.318 70.664,71.552 20.225,20.393 20.794,21.004 22.729,24.407 4.944,8.695 4.669,18.436 -0.692,24.484 -1.827,2.06 -63.456,64.303 -64.303,64.942 -7.423,5.604 -18.97,4.336 -27.799,-3.054 C 292.48,383.955 271.583,362.979 246.829,338 218.85,309.768 201.56,292.441 201.134,292.208 c -0.503,-0.274 -0.963,-0.375 -1.717,-0.375 -1.708,0 -0.561,-1.089 -35.287,33.5 -61.926,61.68 -58.076,57.904 -60.88,59.708 -8.248,5.307 -18.18,5.681 -24.726,0.932 -1.462,-1.061 -65.282,-63.687 -66.358,-65.117 -5.634,-7.486 -3.973,-19.927 3.785,-28.356 0.717,-0.779 21.378,-21.316 45.913,-45.637 34.37,-34.07 44.67,-44.371 44.873,-44.878 0.483,-1.209 0.369,-4.418 -0.195,-5.463 -0.344,-0.637 -8.594,-9.017 -32.957,-33.477 C 16.65,105.881 17.317,106.556 16.054,104.833 9.563,95.973 8.552,85.671 13.448,78.282 14.134,77.247 49.714,41.219 74.727,16.231 79.433,11.529 81.078,10.429 84.811,9.486 87.724,8.75 91.67,8.68 94.63,9.312 m -7.463,37.915 c -0.413,0.121 -1.088,0.389 -1.5,0.596 -0.914,0.457 -36.282,35.691 -36.945,36.804 -1.487,2.499 -1.164,6.113 0.823,9.19 0.677,1.048 9.73,10.181 52.553,53.017 l 51.734,51.751 -51.758,51.749 c -36.924,36.918 -51.971,52.066 -52.5,52.856 -1.989,2.966 -2.383,6.656 -0.976,9.12 0.593,1.036 35.118,35.627 36.465,36.534 2.525,1.699 6.016,1.619 9.187,-0.211 1.02,-0.588 7.666,-7.17 53.042,-52.527 l 51.875,-51.854 52.041,52.014 c 48.799,48.773 52.115,52.051 53.209,52.609 2.94,1.5 5.851,1.625 8.296,0.356 1.506,-0.782 36.466,-35.96 37.163,-37.395 1.017,-2.094 0.848,-4.69 -0.488,-7.503 l -0.752,-1.583 -52.11,-52.138 -52.109,-52.138 51.512,-51.445 c 28.332,-28.295 51.832,-51.855 52.223,-52.355 2.314,-2.958 3.017,-6.84 1.722,-9.507 -0.807,-1.663 -35.921,-36.75 -37.457,-37.429 -2.097,-0.927 -4.747,-0.735 -7.417,0.538 l -1.583,0.755 -52.125,52.109 -52.126,52.108 -51.958,-51.931 C 111.383,65.51 94.942,49.187 94.259,48.746 92.019,47.299 89.073,46.668 87.167,47.227" />
        </g>
      </g>
    </g>
  </g>
</svg>
