<?xml version="1.0" encoding="UTF-8" standalone="no"?>
<!-- Created with Inkscape (http://www.inkscape.org/) -->

<svg
   xmlns:dc="http://purl.org/dc/elements/1.1/"
   xmlns:cc="http://creativecommons.org/ns#"
   xmlns:rdf="http://www.w3.org/1999/02/22-rdf-syntax-ns#"
   xmlns:svg="http://www.w3.org/2000/svg"
   xmlns="http://www.w3.org/2000/svg"
   xmlns:sodipodi="http://sodipodi.sourceforge.net/DTD/sodipodi-0.dtd"
   xmlns:inkscape="http://www.inkscape.org/namespaces/inkscape"
   width="24.305"
   height="24.305"
   viewBox="0 0 6.4306978 6.4306982"
   version="1.1"
   id="svg8"
   inkscape:version="0.92.2 (5c3e80d, 2017-08-06)"
   sodipodi:docname="mark_hunt.svg">
  <defs
     id="defs2" />
  <sodipodi:namedview
     id="base"
     pagecolor="#ffffff"
     bordercolor="#666666"
     borderopacity="1.0"
     inkscape:pageopacity="0.0"
     inkscape:pageshadow="2"
     inkscape:zoom="1.21"
     inkscape:cx="20.148222"
     inkscape:cy="10.633784"
     inkscape:document-units="mm"
     inkscape:current-layer="layer1"
     showgrid="false"
     units="px"
     borderlayer="true"
     inkscape:window-width="1366"
     inkscape:window-height="705"
     inkscape:window-x="-8"
     inkscape:window-y="-8"
     inkscape:window-maximized="1" />
  <metadata
     id="metadata5">
    <rdf:RDF>
      <cc:Work
         rdf:about="">
        <dc:format>image/svg+xml</dc:format>
        <dc:type
           rdf:resource="http://purl.org/dc/dcmitype/StillImage" />
        <dc:title></dc:title>
      </cc:Work>
    </rdf:RDF>
  </metadata>
  <g
     inkscape:label="Ebene 1"
     inkscape:groupmode="layer"
     id="layer1"
     transform="translate(0,-290.56929)">
    <path
       style="fill:#4e55ce;fill-opacity:1;stroke:none;stroke-width:0.55398875;stroke-linecap:round;stroke-linejoin:round;stroke-dasharray:0.41876315, 0.83752631;stroke-opacity:1"
       inkscape:connector-curvature="0"
       d="M 0.56977291,290.8044 H 5.5680001 c 0.230354,0 0.4154454,0.18818 0.41697,0.421 l 0.022403,3.42118 c 0.00152,0.2328 -1.9789265,2.10012 -2.2092583,2.0969 l -3.22834079,-0.0452 c -0.22991583,-0.002 -0.41655417,-0.1886 -0.41655417,-0.42142 v -5.05137 c 0,-0.23238 0.1866161,-0.421 0.41655369,-0.421 z"
       id="rect2902"
       sodipodi:nodetypes="cssssssssc" />
    <g
       style="display:block"
       id="svgg"
       transform="matrix(0.01615544,0,0,0.01591281,4.7551703,288.97504)">
      <path
         id="path0"
         d="m -163.11521,119.2158 c -9.85322,5.06307 -22.01874,12.13151 -24.55744,14.26663 -4.37852,3.685 -8.19506,2.78389 -9.8729,-2.33109 -2.27204,-6.92795 -3.29396,-6.08142 -1.78434,1.4783 0.5745,2.87784 1.14451,11.87737 1.26801,19.99816 0.3982,26.18786 7.08454,45.09072 25.77622,72.86426 11.01116,16.36059 17.04426,22.49302 31.54176,32.05988 12.07246,7.96777 15.4201,13.35836 11.76194,18.94224 -2.04116,3.11498 -4.32572,1.94094 -9.98118,-5.1284 -14.61384,-18.26394 -38.85718,-33.36815 -42.53413,-26.49837 -0.54766,1.02282 -0.7123,2.53333 -0.36689,3.3557 0.34631,0.82326 0.9548,2.90558 1.35212,4.62817 1.94721,8.42593 2.87337,11.25188 5.64652,17.23754 2.91364,6.28903 4.42415,8.00804 15.021,17.09796 1.64652,1.41207 5.07023,3.48723 7.60892,4.61207 3.47651,1.54003 4.9915,2.83757 6.14227,5.26172 0.83938,1.77003 1.90425,3.21789 2.3651,3.21789 0.46085,0 1.42819,1.30918 2.14854,2.90828 0.72035,1.59999 1.77986,3.57225 2.35346,4.38388 0.82058,1.16063 0.72215,1.966 -0.46084,3.7718 -0.82685,1.26264 -1.50425,3.27069 -1.50425,4.46174 0,5.9803 -2.68903,10.82951 -7.90155,14.25053 -10.70065,7.0228 -16.54135,13.79056 -20.64514,23.9203 -1.49351,3.68858 -5.69395,12.54852 -9.33332,19.69034 -5.89797,11.57401 -6.73734,13.85768 -7.72705,21.02903 -0.61029,4.42415 -1.63311,10.66217 -2.27292,13.86126 -4.22908,21.14537 -1.55884,30.49479 13.46842,47.15067 3.46756,3.8434 7.36463,9.25189 8.65949,12.01967 6.09484,13.02279 24.74983,21.09704 37.79947,16.36058 10.55567,-3.83175 15.52389,-7.86127 20.58877,-16.69973 1.34138,-2.34094 4.48589,-5.96508 6.9879,-8.05367 24.494788,-20.45097 28.693438,-32.77845 21.674218,-63.62849 -1.01298,-4.45011 -0.99866,-5.99373 0.0939,-10.1879 2.92079,-11.2134 3.01923,-28.27287 0.15212,-26.50195 -2.85995,1.76823 0.73736,-1.53735 5.01564,-4.6076 7.69396,-5.52123 9.04608,-10.31764 6.21476,-22.04648 -1.95347,-8.09394 -0.48233,-19.10868 3.2,-23.95878 1.94808,-2.56644 2.37672,-4.19687 2.64339,-10.06262 l 0.31767,-7.00043 3.33243,0.53334 c 8.07425,1.29037 32.27286,-16.50288 32.27286,-23.7306 0,-0.9217 0.60402,-1.90783 1.34228,-2.19149 0.73825,-0.28278 1.34227,-0.94228 1.34227,-1.46488 0,-0.52259 1.41298,-2.1906 3.14004,-3.70738 1.72706,-1.51588 3.39149,-3.81923 3.69932,-5.11766 0.30783,-1.29932 1.19463,-3.09082 1.97047,-3.98209 4.12795,-4.7445 -5.29396,-4.02058 -19.84157,1.52483 -12.87513,4.90737 -16.78117,7.12482 -26.43841,15.00847 -4.1208,3.36375 -8.01968,6.11632 -8.66486,6.11632 -1.8953,0 -2.47874,-3.46308 -0.94944,-5.63668 2.63176,-3.73959 3.71811,-4.76777 12.69974,-12.02234 37.82095,-30.54758 55.8522202,-64.0625 51.3296402,-95.41187 -0.64966,-4.50022 -1.1302,-12.61116 -1.06845,-18.02502 0.0778,-6.80177 -0.10472,-8.79192 -0.58971,-6.44204 -0.89486,4.33467 -2.0626402,5.46845 -4.8984202,4.75704 -2.51185,-0.63087 -18.50198,-16.14224 -21.19906,-20.5664 -2.08769,-3.42281 -2.28367,-1.58925 -0.25592,2.38568 2.31945,4.54496 10.55388,15.93017 14.5494,20.11629 9.51497,9.96954 5.83354,12.94583 -9.74495,7.87828 -5.16866,-1.68054 -12.01518,-3.86934 -15.21427,-4.86262 -3.19911,-0.9933 -6.62192,-2.07338 -7.60625,-2.40091 -6.37673,-2.11901 9.37448,5.55257 19.23932,9.37091 21.46394,8.3078 19.18744,6.56464 20.13598,15.42368 1.29127,12.05455 -2.01252,22.53864 -12.34449,39.17842 -7.47828,12.04294 -27.00755,33.27689 -35.47106,38.56726 -3.69842,2.3114 -8.11452,8.19684 -8.11452,10.81429 0,0.85727 -0.40269,1.80671 -0.89486,2.11095 -1.85055,1.14363 -0.77762,-2.1709 2.63623,-8.14136 9.75122,-17.05678 12.0492,-23.49346 14.43397,-40.44465 1.00582,-7.14898 0.62731,-11.16418 -0.5557,-5.88187 -2.89305,12.92704 -8.2747,25.71986 -15.19817,36.12341 -3.11141,4.67561 -7.06038,11.59282 -8.77582,15.37178 -4.28903,9.44964 -8.97,11.92123 -22.579808,11.92123 -15.52122,0 -19.82277,-4.67382 -14.69974,-15.97223 4.0331,-8.89393 4.59417,-13.11585 3.12393,-23.49973 -1.41566,-9.99639 -4.74541,-27.32074 -5.37181,-27.94713 -0.22729,-0.22729 -0.15481,8.47425 0.16108,19.33687 l 0.5745,19.74939 -2.34273,4.78747 c -4.2228,8.63263 -8.22996,10.95298 -11.89349,6.88857 -0.9378,-1.03982 -4.92616,-3.47739 -8.86351,-5.41565 -22.95475,-11.30199 -33.09523,-37.21154 -27.25541,-69.6401 2.6067,-14.47514 1.80402,-14.76776 -2.67025,-0.9745 -3.09708,9.54539 -3.98657,13.72972 -4.33556,20.391 -0.61745,11.81116 -3.80044,8.75524 -9.51497,-9.13555 -11.02994,-34.53236 -9.58298,-43.7565 8.81161,-56.16273 5.12035,-3.45324 17.51496,-13.2295 17.51496,-13.81384 0,-0.63266 -1.61611,-0.0447 -5.81654,2.11275"
         inkscape:connector-curvature="0"
         style="fill:#000000;fill-rule:evenodd;stroke:none;stroke-width:0.89485252" />
    </g>
  </g>
</svg>
