<?xml version="1.0" encoding="UTF-8" standalone="no"?>
<!-- Created with Inkscape (http://www.inkscape.org/) -->

<svg
   xmlns:dc="http://purl.org/dc/elements/1.1/"
   xmlns:cc="http://creativecommons.org/ns#"
   xmlns:rdf="http://www.w3.org/1999/02/22-rdf-syntax-ns#"
   xmlns:svg="http://www.w3.org/2000/svg"
   xmlns="http://www.w3.org/2000/svg"
   xmlns:sodipodi="http://sodipodi.sourceforge.net/DTD/sodipodi-0.dtd"
   xmlns:inkscape="http://www.inkscape.org/namespaces/inkscape"
   width="24.305"
   height="24.305"
   viewBox="0 0 6.4306978 6.4306982"
   version="1.1"
   id="svg8"
   inkscape:version="0.92.2 (5c3e80d, 2017-08-06)"
   sodipodi:docname="mark_list.svg">
  <defs
     id="defs2" />
  <sodipodi:namedview
     id="base"
     pagecolor="#ffffff"
     bordercolor="#666666"
     borderopacity="1.0"
     inkscape:pageopacity="0.0"
     inkscape:pageshadow="2"
     inkscape:zoom="11.924162"
     inkscape:cx="20.148222"
     inkscape:cy="10.633784"
     inkscape:document-units="mm"
     inkscape:current-layer="layer1"
     showgrid="false"
     units="px"
     borderlayer="true"
     inkscape:window-width="1366"
     inkscape:window-height="705"
     inkscape:window-x="-8"
     inkscape:window-y="-8"
     inkscape:window-maximized="1" />
  <metadata
     id="metadata5">
    <rdf:RDF>
      <cc:Work
         rdf:about="">
        <dc:format>image/svg+xml</dc:format>
        <dc:type
           rdf:resource="http://purl.org/dc/dcmitype/StillImage" />
        <dc:title></dc:title>
      </cc:Work>
    </rdf:RDF>
  </metadata>
  <g
     inkscape:label="Ebene 1"
     inkscape:groupmode="layer"
     id="layer1"
     transform="translate(0,-290.56929)">
    <path
       style="fill:#4e55ce;fill-opacity:1;stroke:none;stroke-width:0.53189397;stroke-linecap:round;stroke-linejoin:round;stroke-dasharray:0.40206158, 0.80412318;stroke-opacity:1"
       inkscape:connector-curvature="0"
       d="M 0.71098829,291.02397 H 5.5217442 c 0.221714,0 0.3998631,0.18023 0.4013305,0.40321 l 0.021563,3.27663 c 0.00146,0.22296 -1.9047018,2.01138 -2.1263945,2.0083 l -3.10725356,-0.0433 c -0.22129226,-0.002 -0.40093025,-0.18063 -0.40093025,-0.40362 v -4.83793 c 0,-0.22256 0.17961659,-0.40321 0.40092978,-0.40321 z"
       id="rect2902"
       sodipodi:nodetypes="cssssssssc" />
    <path
       id="path1359"
       d="m 1.348923,291.26838 c -0.028998,-8.4e-4 -0.05823,0.01 -0.078984,0.0337 l -0.33926322,0.38166 -0.1770712,-0.14155 c -0.043401,-0.0347 -0.1068012,-0.0278 -0.1415009,0.0157 -0.034745,0.0433 -0.027707,0.10675 0.01571,0.14155 l 0.2517301,0.20136 c 0.018534,0.0148 0.040731,0.0219 0.062833,0.0219 0.027826,0 0.055483,-0.0114 0.075315,-0.0338 l 0.4027586,-0.45307 c 0.036949,-0.0417 0.033227,-0.10531 -0.00839,-0.14212 -0.018187,-0.0162 -0.040594,-0.0245 -0.063149,-0.0254 z m 0.390274,0.24393 c -0.060401,0 -0.1093741,0.049 -0.1093741,0.1093 v 0.10931 c 0,0.0603 0.048971,0.1093 0.1093741,0.1093 h 1.7497247 c 0.060392,0 0.1093486,-0.049 0.1093763,-0.1093 v -0.10931 c 0,-0.0603 -0.04898,-0.1093 -0.1093763,-0.1093 z m 2.8311331,0.14709 c 0.00389,0.004 0.00821,0.009 0.012186,0.0129 v -0.01 c -0.00407,-8.5e-4 -0.00815,-0.003 -0.012186,-0.003 z m -3.2214071,0.58196 c -0.028998,-8.4e-4 -0.05823,0.01 -0.078984,0.0337 l -0.33926322,0.38165 -0.1770712,-0.1417 c -0.043401,-0.0347 -0.1068012,-0.0278 -0.1415009,0.0157 -0.034745,0.0433 -0.027707,0.10675 0.01571,0.14156 l 0.2517301,0.20138 c 0.018534,0.0148 0.040731,0.022 0.062833,0.022 0.027826,0 0.055483,-0.0114 0.075315,-0.0338 l 0.4027586,-0.4531 c 0.036949,-0.0417 0.033227,-0.10531 -0.00839,-0.14211 -0.018187,-0.0162 -0.040594,-0.0246 -0.063149,-0.0254 z m 0.390274,0.25518 c -0.060401,0 -0.1093741,0.049 -0.1093741,0.1093 v 0.1093 c 0,0.0603 0.048971,0.10931 0.1093741,0.10931 h 1.7497247 c 0.060392,0 0.1093486,-0.049 0.1093763,-0.10931 v -0.1093 c 0,-0.0603 -0.04898,-0.1093 -0.1093763,-0.1093 z m -0.390274,0.67531 c -0.028998,-8.6e-4 -0.05823,0.01 -0.078984,0.0337 l -0.33926322,0.38167 -0.1770712,-0.1417 c -0.043401,-0.0347 -0.1068012,-0.0278 -0.1415009,0.0158 -0.034745,0.0433 -0.027707,0.10675 0.01571,0.14155 l 0.2517301,0.20139 c 0.018534,0.0148 0.040731,0.022 0.062833,0.022 0.027826,0 0.055483,-0.0114 0.075315,-0.0337 l 0.4027586,-0.45312 c 0.036949,-0.0417 0.033227,-0.10521 -0.00839,-0.14228 -0.018187,-0.0161 -0.040594,-0.0244 -0.063149,-0.0254 z m 0.390274,0.19956 c -0.060401,0 -0.1093741,0.049 -0.1093741,0.1093 v 0.1093 c 0,0.0603 0.048971,0.10931 0.1093741,0.10931 h 1.2029252 c 0.060417,0 0.1093487,-0.049 0.1093764,-0.10931 v -0.1093 c 0,-0.0605 -0.048964,-0.1093 -0.1093764,-0.1093 z m 2.7339495,0.43745 c -0.7851605,0 -1.4216494,0.6365 -1.4216494,1.42163 0,0.78516 0.6364769,1.42166 1.4216494,1.42166 0.7851731,0 1.4216502,-0.6365 1.4216502,-1.42166 0,-0.78513 -0.6364897,-1.42163 -1.4216502,-1.42163 z m -3.1242235,0.30002 c -0.028998,-8.4e-4 -0.05823,0.01 -0.078984,0.0337 l -0.33926322,0.38168 -0.1770712,-0.1417 c -0.043401,-0.0348 -0.1068012,-0.0278 -0.1415009,0.0157 -0.034745,0.0433 -0.027707,0.10676 0.01571,0.14156 l 0.2517301,0.2014 c 0.018534,0.0148 0.040731,0.0219 0.062833,0.0219 0.027826,0 0.055483,-0.0114 0.075315,-0.0337 l 0.4027586,-0.45309 c 0.036949,-0.0416 0.033227,-0.10532 -0.00839,-0.14228 -0.018187,-0.0161 -0.040594,-0.0244 -0.063149,-0.0254 z m 0.3902503,0.24675 c -0.0604,0 -0.1093498,0.0491 -0.1093498,0.10942 v 0.1093 c 0,0.0604 0.048946,0.1093 0.1093498,0.1093 h 0.9842486 c 0.060401,0 0.1093497,-0.049 0.1093497,-0.1093 v -0.1093 c 0,-0.0604 -0.048946,-0.10942 -0.1093497,-0.10942 z m 3.4957594,0.2187 c 0.00389,-4e-5 0.00789,-3e-5 0.0118,1.3e-4 0.048997,0.003 0.097697,0.02 0.1372015,0.0551 0.090321,0.0804 0.098428,0.2185 0.018178,0.30884 l -0.8748744,0.98422 c -0.043088,0.0485 -0.1031208,0.0734 -0.1635617,0.0734 -0.048006,0 -0.096277,-0.0157 -0.1365409,-0.048 L 3.680335,295.5106 c -0.0943,-0.0754 -0.1096191,-0.21305 -0.034101,-0.30735 0.07539,-0.0944 0.2131063,-0.10974 0.3074072,-0.0341 l 0.3846064,0.30771 0.7369408,-0.82907 c 0.042265,-0.0477 0.1007086,-0.0724 0.1597496,-0.0734 z m -2.9703614,0.76553 c 0.013156,0.009 0.026376,0.0171 0.039892,0.0251 -0.00869,-0.009 -0.017152,-0.0165 -0.025554,-0.0251 z"
       inkscape:connector-curvature="0"
       style="stroke-width:0.01250833" />
  </g>
</svg>
