<?xml version="1.0" standalone="no"?>
<!DOCTYPE svg PUBLIC "-//W3C//DTD SVG 20010904//EN"
 "http://www.w3.org/TR/2001/REC-SVG-20010904/DTD/svg10.dtd">
<svg version="1.0" xmlns="http://www.w3.org/2000/svg"
 width="700.000000pt" height="700.000000pt" viewBox="0 0 700.000000 700.000000"
 preserveAspectRatio="xMidYMid meet">
<metadata>
Created by potrace 1.11, written by Peter Selinger 2001-2013
</metadata>
<g transform="translate(0.000000,700.000000) scale(0.100000,-0.100000)"
fill="#000000" stroke="none">
<path d="M5104 6622 c4 -7 72 -55 152 -109 209 -139 235 -176 242 -339 5 -128
-15 -258 -78 -509 -59 -234 -94 -320 -115 -285 -4 6 -11 58 -16 116 -5 58 -14
126 -19 152 -18 81 -72 273 -76 269 -3 -2 3 -55 13 -118 11 -76 17 -176 17
-299 1 -214 -12 -297 -47 -305 -35 -8 -520 -95 -529 -95 -4 0 -9 37 -9 83 l-1
82 -15 -85 c-7 -46 -15 -85 -17 -87 -9 -10 -560 -103 -567 -96 -4 4 -14 40
-23 78 l-15 70 5 -81 5 -82 -92 -17 c-110 -20 -98 -28 -164 110 -79 166 -115
307 -115 449 0 133 4 141 138 249 214 175 234 199 75 92 -155 -103 -193 -116
-193 -67 0 16 15 58 34 93 37 71 120 260 131 299 3 14 -17 -15 -45 -65 -86
-152 -131 -215 -151 -215 -11 0 -20 8 -21 18 -3 35 -16 -247 -17 -384 -1 -202
37 -391 114 -557 l25 -52 -28 -8 c-24 -7 -2923 -537 -2936 -537 -3 0 -6 -382
-6 -849 l0 -849 -28 -6 c-15 -3 -98 -17 -186 -31 -87 -14 -162 -28 -167 -31
-5 -3 -9 -12 -9 -20 0 -11 18 -14 89 -13 169 3 203 -37 221 -261 27 -340 41
-1325 20 -1415 -19 -85 -110 -135 -245 -135 -57 0 -74 -10 -51 -30 8 -6 138
-31 288 -55 150 -24 345 -59 433 -78 214 -46 219 -47 234 -37 24 14 4 39 -41
50 -243 61 -280 107 -299 377 -6 79 -9 150 -6 157 3 8 15 12 29 10 13 -2 357
-65 765 -139 408 -74 745 -135 749 -135 12 0 -5 -249 -20 -284 -16 -37 -63
-78 -120 -101 -21 -9 -93 -21 -160 -26 -130 -10 -146 -13 -146 -28 0 -24 35
-39 122 -50 324 -43 1099 -185 1390 -256 57 -14 122 -25 145 -25 88 0 58 46
-50 79 -369 112 -448 158 -497 287 -26 69 -62 237 -58 269 3 25 -166 54 1658
-280 591 -108 1197 -219 1345 -246 149 -27 280 -51 293 -54 l22 -5 0 2625 c0
1444 -3 2625 -7 2625 -10 0 -755 -135 -942 -171 -85 -16 -156 -27 -158 -26 -1
2 24 72 57 155 115 289 151 483 170 912 6 135 13 263 15 285 4 35 2 33 -15
-20 -34 -106 -75 -127 -150 -80 -44 28 -279 130 -324 141 -20 5 -27 4 -22 -4z
m1286 -3818 l0 -2516 -22 5 c-35 9 -615 115 -1893 347 -1211 220 -1316 239
-1327 249 -25 23 -63 979 -54 1366 9 380 33 552 92 652 50 86 191 165 372 208
82 20 119 43 109 68 -10 28 -88 21 -402 -33 -159 -28 -409 -71 -555 -96 -612
-105 -632 -109 -617 -148 6 -14 28 -16 164 -14 110 2 169 -1 194 -10 73 -26
80 -79 86 -643 l5 -467 -44 -6 c-23 -4 -368 -9 -765 -12 l-722 -6 -6 33 c-3
19 -7 167 -8 329 -2 255 0 306 16 372 34 145 112 219 265 253 94 21 112 30
112 55 0 29 -24 27 -289 -30 -128 -28 -237 -50 -242 -50 -5 0 -8 333 -7 803
l3 802 120 22 c793 145 1710 312 2180 397 319 58 588 108 598 110 14 3 32 -17
74 -82 62 -97 132 -187 239 -308 40 -45 79 -96 88 -112 18 -36 21 -92 5 -92
-6 0 -45 36 -87 80 -87 93 -161 145 -264 188 -85 34 -129 44 -147 33 -18 -11
14 -97 63 -175 20 -30 36 -63 36 -73 0 -25 50 -109 96 -162 58 -68 150 -131
189 -131 39 0 45 -14 45 -110 0 -43 7 -80 20 -108 11 -24 25 -73 31 -109 11
-62 10 -106 -7 -314 -8 -90 10 -139 76 -217 38 -46 40 -50 29 -82 -13 -36 -8
-178 12 -325 10 -77 9 -108 -5 -205 -9 -63 -16 -172 -16 -241 0 -209 45 -338
195 -559 42 -63 104 -171 137 -240 53 -109 70 -134 132 -196 83 -82 148 -116
227 -122 120 -9 223 56 287 180 18 35 57 92 87 128 84 101 151 203 175 267 29
78 40 187 30 297 -11 107 -57 457 -67 495 -3 14 -45 130 -93 256 -48 127 -95
255 -105 285 -43 133 -112 240 -225 352 -70 69 -100 127 -100 194 0 17 -7 54
-16 82 -16 49 -16 53 6 106 12 30 28 60 35 66 8 7 19 27 25 46 9 25 32 49 85
89 82 60 195 186 230 255 12 25 32 75 44 111 25 76 71 290 71 330 0 57 -53 62
-132 13 -116 -72 -243 -209 -368 -396 -41 -62 -83 -114 -93 -116 -12 -3 -22 8
-33 34 -13 32 -14 45 -4 79 16 54 44 88 185 229 136 136 199 224 305 428 l71
136 97 17 c130 23 311 56 647 120 154 29 290 53 303 54 l22 1 0 -2516z m-1226
2274 c-15 -51 -74 -169 -113 -226 -22 -33 -73 -89 -112 -124 -39 -34 -98 -87
-130 -116 -49 -43 -63 -51 -78 -43 -25 14 -45 46 -76 122 -24 61 -25 69 -19
189 l7 125 251 47 c305 56 279 53 270 26z m-578 -245 c-1 -158 1 -173 27 -251
31 -95 33 -131 12 -172 -22 -43 -67 -62 -160 -68 -140 -8 -181 18 -231 150
-15 40 -50 123 -77 183 -53 118 -90 216 -83 222 2 3 118 26 258 53 139 26 253
48 254 49 0 0 0 -74 0 -166z m-543 -15 c10 -39 42 -135 73 -212 30 -77 53
-147 51 -155 -2 -10 -7 -4 -11 14 -16 63 -32 92 -81 145 -91 98 -202 246 -193
256 4 4 98 21 129 23 11 1 20 -19 32 -71z m-1669 -3178 c82 -5 153 -13 157
-17 9 -9 35 -620 27 -628 -4 -4 -1323 232 -1515 271 l-33 7 0 187 c0 141 3
190 13 194 19 9 1184 -3 1351 -14z"/>
</g>
</svg>
